<svg width="452" height="447" viewBox="0 0 452 447" fill="none" xmlns="http://www.w3.org/2000/svg">
<path fill-rule="evenodd" clip-rule="evenodd" d="M172.438 239.131C172.897 238.554 173.402 237.949 173.94 237.314C176.363 234.394 179.279 230.698 182.718 226.105C190.264 216.053 202.852 199.718 211.528 188.498L218.067 180.084C218.686 179.273 219.244 178.551 219.686 177.996C220.583 176.824 221.082 176.192 221.082 176.192C221.082 176.192 244.183 189.976 257.84 187.02C257.84 187.02 258.017 187.475 258.288 188.354L258.392 188.676C259.754 193.317 262.782 207.327 257.369 227.892C256.768 230.44 255.916 233.058 254.969 235.809C254.64 236.766 254.292 237.744 253.912 238.754C254.733 255.12 253.173 271.519 249.282 287.438L246.874 300.862C246.844 301.592 246.824 302.39 246.792 303.236C246.204 317.775 249 347.443 244.702 358.689C241.774 366.377 232.091 374.139 223.292 379.911C225.177 381.064 226.736 382.678 227.822 384.602V384.602C222.094 388.517 215.417 390.818 208.493 391.263C211.276 393.179 213.412 395.896 214.615 399.054C215.819 402.211 216.034 405.66 215.233 408.943L191.015 385.868L193.418 382.646L194.342 373.256L195.707 373.281C197.196 360.35 199.141 337.492 196.736 321.612L196.463 319.918L196.315 319.068L184.588 316.428C184.591 316.394 184.598 316.361 184.611 316.33C184.63 316.266 184.645 316.2 184.657 316.134C184.675 316.078 184.688 316.021 184.698 315.962C184.719 315.89 184.736 315.816 184.75 315.742C185.111 310.654 186.429 278.13 164.864 247.327C167.567 244.766 170.098 242.028 172.438 239.131V239.131Z" fill="#00FFFF"/>
<path fill-rule="evenodd" clip-rule="evenodd" d="M357.677 207.403C353.935 213.235 348.534 217.815 342.169 220.553C339.332 221.885 336.349 222.882 333.281 223.524C330.87 219.287 329.995 214.348 330.802 209.54C330.892 207.574 331.349 205.643 332.148 203.844C334.635 199.828 339.509 194.577 343.237 192.483L344.39 195.432C344.39 195.432 348.063 191.98 359.335 193.698C359.321 193.759 364.738 195.737 357.677 207.403Z" fill="#00FFFF"/>
<path fill-rule="evenodd" clip-rule="evenodd" d="M242.407 171.594C242.31 164.833 240.265 159.034 237.269 153.102C233.866 146.427 228.203 140.835 222.323 136.161C218.766 133.317 214.958 130.659 211.689 127.468L211.421 127.017C210.412 124.299 209.596 121.514 208.979 118.681C208.776 116.996 208.658 115.302 208.626 113.605C210.883 112.199 212.98 110.553 214.881 108.694C218.564 104.746 221.205 99.9425 222.566 94.718C222.719 94.1155 222.842 93.5056 222.933 92.8907C224.263 91.3138 225.446 89.6195 226.469 87.8285C228.7 97.7151 229.541 107.864 228.97 117.983C228.777 121.701 228.427 125.757 227.792 130.146L234.278 131.923C234.278 131.923 235.618 162.282 268.699 173.677C295.597 182.939 313.37 171.915 318.659 167.538C318.836 167.334 318.967 167.107 319.117 166.91C325.278 158.018 333.305 137.993 335.175 116.876C336.443 101.98 334.738 86.4719 327.003 73.885C326.643 73.2989 326.244 72.738 325.808 72.2063L325.132 71.4C323.244 69.3298 321.124 67.4839 318.814 65.8988C314.517 62.95 309.939 60.431 305.149 58.3779C291.466 53.2279 276.592 52.1168 262.296 55.1766C249.545 57.8563 238.196 65.0624 230.347 75.4624C230.608 73.186 230.582 70.8857 230.27 68.6158C229.264 61.4851 227.548 57.0319 224.492 50.5295L224.232 49.9895C231 46.5546 238.333 44.3696 245.878 43.5398C264.645 41.5055 288.918 46.824 306.851 54.7837C311.962 56.9939 316.846 59.6936 321.436 62.8452C323.907 64.5275 326.168 66.4985 328.172 68.7165L328.879 69.5559C329.344 70.1215 329.769 70.7188 330.151 71.3436C350.05 103.615 332.924 154.392 321.733 170.618C321.55 170.846 321.419 171.074 321.236 171.302C317.975 175.019 314.027 178.069 309.608 180.286C309.321 180.462 309.021 180.616 308.711 180.747C297.326 186.569 284.764 189.719 271.979 189.958C260.955 190.047 249.96 188.784 239.243 186.197C241.41 181.639 242.493 176.64 242.407 171.594V171.594Z" fill="#00FFFF"/>
<path fill-rule="evenodd" clip-rule="evenodd" d="M330.787 226.802C324.548 239.748 293.07 253.549 276.693 249.734C275.964 249.563 275.246 249.351 274.541 249.096C264.847 245.514 258.615 234.394 255.478 227.083C254.522 224.924 253.698 222.708 253.01 220.448L256.059 186.457C256.059 186.457 256.488 186.558 257.258 186.856C261.563 188.362 265.666 190.396 269.472 192.909C275.778 197.205 298.292 203.893 310.49 202.183C322.689 200.472 327.368 196.922 330.204 197.565C333.039 198.209 334.758 203.361 334.758 203.361C334.758 203.361 337.349 213.143 330.787 226.802Z" fill="#00FFFF"/>
<path d="M47.5961 296.918C44.0901 295.206 40.7911 293.099 37.763 290.638C19.5976 276.106 21.7383 249.518 34.1433 233.242C46.8427 216.597 73.6902 205.866 107.673 230.471C167.243 273.612 189.754 255.287 189.971 255.08L193.229 258.863C192.206 259.746 167.482 279.94 104.743 234.499C73.7067 212.039 49.9794 220.674 38.1148 236.249C27.1512 250.692 25.0664 274.087 40.8811 286.745C60.3947 302.359 78.6342 295.221 97.9428 287.663C105.594 284.672 113.503 281.574 121.496 279.983C149.989 274.335 168.49 290.512 169.269 291.265L165.957 294.996C159.859 290.29 152.818 286.955 145.314 285.218C137.81 283.482 130.019 283.385 122.474 284.934C114.913 286.446 107.183 289.444 99.781 292.365C83.0173 298.894 65.7252 305.635 47.5961 296.918Z" fill="#CAB3DA"/>
<path fill-rule="evenodd" clip-rule="evenodd" d="M106.008 362.159C106.008 362.159 90.0808 377.796 77.1318 371.13L106.008 362.159Z" fill="#CAB3DA"/>
<path fill-rule="evenodd" clip-rule="evenodd" d="M330.174 228.079C324.135 240.62 293.016 253.666 276.69 249.746C275.961 249.576 275.242 249.363 274.538 249.108C264.856 245.528 258.568 234.59 255.321 227.421C254.349 225.303 253.502 223.129 252.784 220.912L255.406 187.906C255.406 187.906 255.822 188.005 256.605 188.306C260.902 189.828 265.003 191.856 268.822 194.347C275.161 198.611 297.609 205.413 309.724 203.89C321.84 202.367 326.402 198.983 329.259 199.644C332.116 200.306 333.861 205.348 333.861 205.348C333.861 205.348 336.532 214.85 330.174 228.079Z" fill="url(#paint0_radial_2_4506)"/>
<path fill-rule="evenodd" clip-rule="evenodd" d="M333.779 205.316C333.779 205.316 328.949 202.986 326.667 205.913C324.385 208.84 319.934 227.524 330.177 228.068C340.421 228.611 333.779 205.316 333.779 205.316V205.316Z" fill="#684D73"/>
<path fill-rule="evenodd" clip-rule="evenodd" d="M331.073 206.203C331.073 206.203 328.523 216.179 333.518 225.313C333.518 225.313 339.641 213.296 331.073 206.203Z" fill="#53345F"/>
<path fill-rule="evenodd" clip-rule="evenodd" d="M354.947 207.625C351.504 213.14 346.53 217.533 340.632 220.268C338.052 221.566 335.326 222.555 332.514 223.213C330.373 219.223 329.667 214.619 330.511 210.17C330.511 210.17 331.144 209.026 332.207 207.26C334.542 203.453 338.82 197.001 342.299 194.977L342.082 199.672C342.082 199.672 346.494 193.42 356.691 194.82C356.691 194.82 361.556 196.564 354.947 207.625Z" fill="#FF6B22"/>
<path d="M296.57 203.241C296.57 203.241 289.88 211.088 287.56 228.633C285.24 246.178 297.1 248.475 297.1 248.475C297.1 248.475 289.777 250.625 284.639 250.42C284.639 250.42 256.761 240.655 285.631 200.877L296.57 203.241Z" fill="#FF6B22"/>
<path style="mix-blend-mode:multiply" fill-rule="evenodd" clip-rule="evenodd" d="M255.321 227.421C254.643 229.964 253.865 232.6 252.933 235.341L244.535 216.416L253.462 187.486L256.423 187.927C256.473 188.042 256.487 188.149 256.525 188.261C260.822 189.784 264.923 191.812 268.742 194.302C268.742 194.302 244.542 213.974 274.52 249.078C264.857 245.529 258.568 234.59 255.321 227.421Z" fill="url(#paint1_linear_2_4506)"/>
<path fill-rule="evenodd" clip-rule="evenodd" d="M225.579 384.137C225.579 384.137 220.83 372.864 192.993 373.002C192.993 373.002 202.527 387.501 225.579 384.137Z" fill="#53345F"/>
<path fill-rule="evenodd" clip-rule="evenodd" d="M102.265 332.719C102.265 332.719 119.993 334.319 127.236 355.235C127.236 355.235 119.248 357.681 110.104 351.111C100.96 344.542 102.265 332.719 102.265 332.719Z" fill="#53345F"/>
<path fill-rule="evenodd" clip-rule="evenodd" d="M205.399 388.812L193.018 382.862C193.018 382.862 193.539 379.558 194.17 374.314C195.785 361.013 198.224 335.245 195.21 318.872L244.83 294.625C244.83 294.625 244.74 297.798 244.531 302.792C243.881 317.317 246.444 346.931 242.195 358.187C236.518 373.245 205.399 388.812 205.399 388.812Z" fill="url(#paint2_radial_2_4506)"/>
<path fill-rule="evenodd" clip-rule="evenodd" d="M244.848 294.603C231.95 307.556 215.357 316.197 197.35 319.338L195.219 318.835L183.786 316.264C183.796 316.232 183.804 316.2 183.809 316.166C183.834 316.104 183.85 316.038 183.855 315.97C183.873 315.914 183.886 315.857 183.896 315.799C183.917 315.726 183.934 315.653 183.948 315.578C185.067 291.388 178.393 267.476 164.907 247.363C167.582 244.782 170.085 242.03 172.401 239.123C172.864 238.551 173.356 237.943 173.879 237.299C176.253 234.368 179.132 230.664 182.509 226.055C189.934 215.975 202.325 199.593 210.818 188.33C213.387 184.953 215.602 182.036 217.247 179.89C217.853 179.076 218.399 178.352 218.84 177.796C219.713 176.619 220.212 175.986 220.212 175.986C220.212 175.986 242.701 189.626 256.051 186.597C256.051 186.597 256.216 187.05 256.475 187.926L256.58 188.248C257.88 192.874 260.761 206.85 255.373 227.42C254.697 229.951 253.92 232.587 252.985 235.34C252.643 236.294 252.308 237.276 251.927 238.285C252.639 254.645 251.026 271.024 247.138 286.932C246.417 289.49 245.682 292.058 244.848 294.603Z" fill="#CAB3DA"/>
<path fill-rule="evenodd" clip-rule="evenodd" d="M209.253 209.028C208.731 209.758 208.185 210.483 207.609 211.226C198.675 223.096 185.508 234.277 172.303 239.099C164.2 242.087 156.09 242.694 148.897 239.637C132.881 232.816 127.15 218.478 125.782 214.301C125.747 214.168 125.705 214.037 125.655 213.909C125.632 213.791 125.598 213.675 125.556 213.562C125.509 213.421 125.469 213.278 125.437 213.133C125.437 213.133 120.431 208.976 123.102 203.089C125.772 197.202 132.132 189.056 132.132 189.056L135.379 189.215C136.11 188.093 137.129 187.189 138.329 186.597C139.529 186.004 140.867 185.745 142.201 185.847C146.62 186.412 155.777 191.174 169.719 189.475C181.954 187.993 200.66 182.439 207.013 179.853C207.661 179.62 208.291 179.336 208.894 179.004C211.018 177.767 213.355 176.937 215.783 176.557L217.585 177.306L218.761 177.804L222.408 179.337C222.408 179.337 223.851 188.834 209.253 209.028Z" fill="url(#paint3_radial_2_4506)"/>
<path fill-rule="evenodd" clip-rule="evenodd" d="M183.777 316.302C183.777 316.302 155.371 336.752 148.484 342.367C141.597 347.983 122.244 355.453 112.575 355.873C112.342 355.894 112.107 355.899 111.873 355.888C102.798 355.982 99.6256 349.646 99.6256 349.646C99.6256 349.646 100.051 347.845 100.719 345.016C101.61 341.243 102.929 335.657 104.42 330.112C106.347 322.717 108.505 315.389 110.054 312.496C112.682 307.556 141.328 274.372 156.093 257.412L164.813 247.431C188.457 269.103 184.563 309.853 183.84 315.541C183.833 315.62 183.814 315.699 183.785 315.773C183.776 315.831 183.763 315.889 183.745 315.945C183.725 316.031 183.713 316.08 183.701 316.129L183.777 316.302Z" fill="url(#paint4_radial_2_4506)"/>
<path fill-rule="evenodd" clip-rule="evenodd" d="M224.457 180.08C224.457 180.08 235.537 190.224 240.221 192.132C244.905 194.04 255.999 186.598 255.999 186.598C255.999 186.598 244.532 187.02 224.457 180.08Z" fill="#53345F"/>
<path fill-rule="evenodd" clip-rule="evenodd" d="M215.811 176.551C215.811 176.551 212.333 215.484 179.149 236.836C179.149 236.836 208.777 222.546 224.43 180.138L215.811 176.551Z" fill="#53345F"/>
<path fill-rule="evenodd" clip-rule="evenodd" d="M253.474 187.489C253.474 187.489 256.165 217.275 251.826 238.274C251.826 238.274 262.364 215.557 259.332 189.351L255.938 186.584L253.474 187.489Z" fill="#53345F"/>
<path fill-rule="evenodd" clip-rule="evenodd" d="M159.458 253.512C159.458 253.512 175.9 267.896 179.192 319.616L183.777 316.301C183.777 316.301 191.035 267.061 164.81 247.391L159.458 253.512Z" fill="#53345F"/>
<path fill-rule="evenodd" clip-rule="evenodd" d="M247.075 286.981C247.075 286.981 221.552 316.363 195.225 318.863L195.762 322.067C195.762 322.067 222.349 323.173 244.68 300.461L247.075 286.981Z" fill="#53345F"/>
<path fill-rule="evenodd" clip-rule="evenodd" d="M125.453 213.176C125.453 213.176 120.447 209.019 123.118 203.132C125.788 197.244 132.148 189.098 132.148 189.098L135.395 189.257C135.395 189.257 144.753 205.435 125.453 213.176Z" fill="#684D73"/>
<path fill-rule="evenodd" clip-rule="evenodd" d="M124.382 207.582C124.382 207.582 135.94 198.672 132.148 189.098C132.148 189.098 120.773 203.147 124.382 207.582Z" fill="#53345F"/>
<path fill-rule="evenodd" clip-rule="evenodd" d="M132.411 195.873C132.411 195.873 133.823 187.153 127.263 182.074L125.486 185.766C125.486 185.766 117.82 175.239 108.041 178.478C108.041 178.478 105.118 195.893 126.047 206.281C129.276 203.623 131.517 199.958 132.411 195.873V195.873Z" fill="#FF6B22"/>
<path d="M118.506 301.404C118.506 301.404 113.14 312.901 126.849 326.317C140.558 339.732 154.786 337.531 154.786 337.531C154.786 337.531 147.195 343.938 142.089 346.392C136.983 348.846 113.548 336.91 107.031 320.809C107.031 320.809 108.558 314.341 110.841 311.246C113.124 308.151 118.506 301.404 118.506 301.404Z" fill="#FF6B22"/>
<path d="M196.621 339.018C196.621 339.018 205.285 350.686 217.052 357.759C224.099 361.964 232.447 363.434 240.507 361.888C240.507 361.888 235.388 369.435 229.643 373.225C229.643 373.225 214.783 370.815 207.576 365.246C200.369 359.677 196.265 350.548 196.265 350.548L196.621 339.018Z" fill="#FF6B22"/>
<path d="M173.364 188.991C173.364 188.991 191.117 218.686 159.807 241.684C163.792 241.66 167.738 240.9 171.446 239.441C180.137 236.32 205.497 201.222 183.151 186.866L173.364 188.991Z" fill="#FF6B22"/>
<path d="M195.371 319.013L195.077 318.724C195.294 318.517 216.078 298.142 224.305 281.048C231.42 266.252 232.716 257.919 234.519 246.395C235.198 242.042 235.964 237.102 237.16 231.267C239.724 218.69 241.372 205.945 242.093 193.13L242.503 193.149C241.792 205.986 240.143 218.754 237.568 231.35C236.374 237.173 235.608 242.113 234.932 246.454C233.129 258.03 231.81 266.409 224.677 281.226C216.423 298.378 195.585 318.818 195.371 319.013Z" fill="#53345F"/>
<path style="mix-blend-mode:multiply" fill-rule="evenodd" clip-rule="evenodd" d="M195.169 374.796L194.17 374.314C195.785 361.013 198.224 335.245 195.21 318.872L183.777 316.301C183.777 316.301 155.371 336.751 148.484 342.367C141.597 347.983 122.247 355.441 112.575 355.872C112.34 355.881 112.09 355.9 111.873 355.888L100.686 345.046C101.574 341.286 102.893 335.7 104.372 330.152L105.517 329.957C105.517 329.957 116.564 346.158 131.31 346.692C146.056 347.225 174.221 315.312 174.495 308.949C175.536 285.153 163.092 266.165 156.017 257.407L164.74 247.414C167.415 244.834 169.918 242.081 172.234 239.174C164.131 242.162 156.021 242.768 148.828 239.712C132.812 232.89 127.068 218.549 125.704 214.36C127.245 218.785 134.63 235.156 158.978 239.173C163.941 239.956 169.023 239.318 173.638 237.333C194.242 228.891 208.556 198.181 210.181 191.465C210.429 190.451 210.574 189.415 210.614 188.373V188.373C210.744 186.765 210.471 185.15 209.819 183.675C209.167 182.199 208.156 180.91 206.879 179.925C207.532 179.701 208.162 179.417 208.761 179.076C210.884 177.836 213.221 177.006 215.65 176.629L217.437 177.388C217.286 178.024 217.206 178.911 217.031 179.982C215.378 189.891 212.773 199.618 209.253 209.028C206.506 216.431 202.766 223.427 198.135 229.823C182.572 250.487 177.867 253.708 177.867 253.708C177.867 253.708 184.448 291.228 193.475 301.249C202.502 311.27 231.638 299.773 239.3 293.396C242.973 290.384 245.434 288.288 247.041 286.96C246.372 289.518 245.636 292.086 244.803 294.631C244.803 294.631 244.713 297.804 244.503 302.799C236.834 309.588 210.637 333.12 205.114 343.145C198.661 354.915 195.169 374.796 195.169 374.796Z" fill="url(#paint5_linear_2_4506)"/>
<g style="mix-blend-mode:multiply" opacity="0.5">
<path fill-rule="evenodd" clip-rule="evenodd" d="M215.811 176.551C215.811 176.551 218.842 198.217 237.081 212.819C255.321 227.421 264.886 191.904 264.886 191.904L259.405 189.316L256.434 187.877L215.811 176.551Z" fill="#53345F"/>
</g>
<path fill-rule="evenodd" clip-rule="evenodd" d="M189.616 385.602L191.983 382.372L192.993 373.002C192.993 373.002 211.451 384.215 225.579 384.137C220.003 388.061 213.466 390.397 206.666 390.896C206.666 390.896 217.099 397.317 215.218 409.004L189.616 385.602Z" fill="#684D73"/>
<path fill-rule="evenodd" clip-rule="evenodd" d="M127.183 355.184L107.722 358.568L105.993 362.168C105.993 362.168 93.4622 373.28 77.1193 371.127C77.1193 371.127 81.2752 357.637 97.7458 352.513L102.253 332.717C103.427 338.435 106.048 343.757 109.867 348.172C115.972 355.123 126.253 355.236 127.183 355.184Z" fill="#684D73"/>
<path fill-rule="evenodd" clip-rule="evenodd" d="M189.616 385.602L187.516 387.046L213.922 410.716L215.206 409.001L189.616 385.602Z" fill="#CAB3DA"/>
<path style="mix-blend-mode:multiply" fill-rule="evenodd" clip-rule="evenodd" d="M225.578 384.137C220.003 388.061 213.466 390.398 206.665 390.896C206.665 390.896 194.986 386.082 189.622 385.578L191.988 382.348L192.999 372.977C192.999 372.977 211.451 384.215 225.578 384.137Z" fill="url(#paint6_linear_2_4506)"/>
<path style="mix-blend-mode:multiply" fill-rule="evenodd" clip-rule="evenodd" d="M127.184 355.184L107.723 358.567C103.965 357.367 100.545 355.292 97.7461 352.512L102.253 332.716C103.427 338.435 106.049 343.756 109.867 348.171C115.973 355.122 126.253 355.235 127.184 355.184Z" fill="url(#paint7_linear_2_4506)"/>
<path style="mix-blend-mode:multiply" fill-rule="evenodd" clip-rule="evenodd" d="M110.474 191.61C110.474 191.61 116.36 199.544 123.246 200.563C130.131 201.581 132.519 194.644 132.519 194.644C132.519 194.644 132.761 200.521 126.022 206.275C126.022 206.275 114.158 200.654 110.474 191.61Z" fill="url(#paint8_linear_2_4506)"/>
<path style="mix-blend-mode:multiply" fill-rule="evenodd" clip-rule="evenodd" d="M340.632 220.268C338.052 221.566 335.326 222.555 332.514 223.213C330.373 219.223 329.667 214.619 330.511 210.17C330.511 210.17 331.144 209.026 332.207 207.26C332.269 207.274 331.205 214.627 340.632 220.268Z" fill="url(#paint9_linear_2_4506)"/>
<path fill-rule="evenodd" clip-rule="evenodd" d="M230.349 222.158C229.42 224.107 227.932 225.737 226.076 226.841C224.219 227.945 222.077 228.473 219.92 228.358C217.763 228.243 215.688 227.491 213.959 226.197C212.23 224.902 210.924 223.124 210.207 221.086C209.489 219.049 209.392 216.845 209.928 214.752C210.465 212.66 211.61 210.774 213.219 209.333C214.828 207.891 216.828 206.96 218.967 206.657C221.105 206.354 223.286 206.692 225.232 207.628C227.831 208.883 229.828 211.115 230.787 213.838C231.746 216.56 231.588 219.551 230.349 222.158Z" fill="#684D73"/>
<path fill-rule="evenodd" clip-rule="evenodd" d="M226.69 220.401C226.101 221.623 225.162 222.642 223.994 223.331C222.825 224.019 221.478 224.345 220.124 224.268C218.77 224.192 217.469 223.715 216.386 222.899C215.302 222.083 214.485 220.964 214.037 219.683C213.59 218.403 213.532 217.019 213.871 215.705C214.21 214.392 214.93 213.209 215.942 212.305C216.953 211.401 218.21 210.817 219.553 210.628C220.896 210.438 222.265 210.651 223.487 211.239C224.301 211.628 225.029 212.175 225.631 212.847C226.232 213.519 226.695 214.303 226.993 215.154C227.291 216.006 227.417 216.908 227.365 217.808C227.313 218.708 227.084 219.59 226.69 220.401Z" fill="#FF6B22"/>
<path fill-rule="evenodd" clip-rule="evenodd" d="M187.578 185.92C187.578 185.92 196.651 198.318 205.179 180.61C205.179 180.61 192.439 184.611 187.578 185.92Z" fill="#684D73"/>
<path d="M196.4 330.754L196.496 330.349C196.851 330.433 232.953 339.438 244.596 330.716L244.839 331.058C233.063 339.903 197.889 331.131 196.4 330.754Z" fill="#53345F"/>
<path d="M168.782 327.775C169.824 321.198 169.835 314.499 168.815 307.918C166.147 291.122 146.506 268.818 146.314 268.591L146.625 268.316C146.83 268.545 166.539 290.943 169.23 307.861C170.255 314.488 170.241 321.235 169.189 327.858L168.782 327.775Z" fill="#53345F"/>
<path d="M134.994 229.784L134.652 229.535C146.236 213.338 147.54 202.343 146.736 195.997C145.768 189.147 142.119 186.086 142.088 186.053L142.343 185.738C142.507 185.868 146.192 188.937 147.154 195.927C148.034 202.33 146.635 213.458 134.994 229.784Z" fill="#53345F"/>
<path d="M309.834 244.007C298.18 223.149 320.803 201.501 321.035 201.285L321.314 201.583C321.094 201.803 298.703 223.234 310.194 243.795L309.834 244.007Z" fill="#53345F"/>
<path d="M209.313 247.931C208.185 250.145 206.78 252.208 205.134 254.07L200.708 251.343C201.857 249.053 203.655 247.152 205.879 245.878L209.313 247.931Z" fill="white"/>
<path d="M151.843 190.529C153.523 191.225 155.344 191.509 157.156 191.358L158.844 193.903C158.844 193.903 154.699 195.795 152.115 193.374L151.843 190.529Z" fill="white"/>
<path d="M128.36 305.025C126.263 306.422 124.539 308.31 123.336 310.524L126.224 313.573L130.749 307.942L128.36 305.025Z" fill="white"/>
<path d="M328.38 199.864C326.634 200.56 325.153 201.79 324.149 203.378L320.575 203.724C321.279 202.856 322.092 202.083 322.994 201.424C324.379 200.432 328.38 199.864 328.38 199.864Z" fill="white"/>
<path d="M238.8 340.858C238.8 340.858 239.929 349.711 238.675 353.761L242.388 354.03C243.615 349.976 243.843 345.686 243.052 341.526L238.8 340.858Z" fill="white"/>
<path d="M316.101 165.007C315.948 165.217 315.807 165.429 315.645 165.624C310.385 169.878 292.72 180.553 265.774 171.331C232.682 159.985 231.198 130.342 231.198 130.342L224.688 128.611C225.276 124.314 225.627 120.362 225.8 116.73C226.8 96.3386 222.171 85.9856 222.677 83.0788C223.255 79.6458 233.318 61.0198 258.747 55.5281C275.618 51.8304 290.89 55.0105 301.577 58.8274C306.385 60.8816 310.99 63.3807 315.333 66.2921C317.645 67.8402 319.774 69.6445 321.68 71.6709L322.347 72.462C322.781 72.9843 323.183 73.5326 323.55 74.104C331.346 86.4336 333.181 101.61 331.951 116.179C330.118 136.865 322.194 156.346 316.101 165.007Z" fill="url(#paint10_linear_2_4506)"/>
<path style="mix-blend-mode:lighten" d="M316.101 165.007C315.948 165.217 315.807 165.429 315.645 165.624C310.385 169.878 292.72 180.553 265.774 171.331C232.682 159.985 231.198 130.342 231.198 130.342L224.688 128.611C225.276 124.314 225.627 120.362 225.8 116.73C226.8 96.3386 222.171 85.9856 222.677 83.0788C223.255 79.6458 233.318 61.0198 258.747 55.5281C275.618 51.8304 290.89 55.0105 301.577 58.8274C306.385 60.8816 310.99 63.3807 315.333 66.2921C317.645 67.8402 319.774 69.6445 321.68 71.6709L322.347 72.462C322.781 72.9843 323.183 73.5326 323.55 74.104C331.346 86.4336 333.181 101.61 331.951 116.179C330.118 136.865 322.194 156.346 316.101 165.007Z" fill="url(#paint11_radial_2_4506)"/>
<g style="mix-blend-mode:lighten">
<path style="mix-blend-mode:lighten" d="M272.383 173.9C270.094 173.348 267.835 172.681 265.613 171.901C234.754 161.341 231.023 134.646 230.646 130.82L224.04 129.001L224.167 128.462C224.731 124.379 225.1 120.405 225.277 116.645C225.774 107.094 224.936 97.5196 222.786 88.2C222.279 86.4668 222.042 84.6659 222.082 82.8605C222.83 78.4332 233.908 60.1633 258.637 54.7907C276.038 51.0372 291.721 54.5599 301.807 58.1832C306.653 60.24 311.29 62.7599 315.652 65.7078C318.007 67.29 320.174 69.1339 322.114 71.2041L322.79 72.0104C323.245 72.55 323.664 73.1198 324.042 73.7159C331.122 84.9191 333.98 99.2121 332.52 116.236C330.846 136.028 323.269 155.901 316.648 165.317L316.495 165.527C316.381 165.681 316.267 165.835 316.144 165.974C312.951 168.596 297.372 179.802 272.383 173.9ZM225.405 128.095L231.806 129.852L231.827 130.31C231.837 130.597 233.7 159.67 265.986 170.708C294.291 180.419 311.951 167.739 315.247 165.116C315.247 165.116 315.364 164.949 315.445 164.826L315.598 164.617C322.12 155.345 329.585 135.73 331.246 116.155C332.676 99.4215 329.888 85.3779 322.992 74.4379C322.647 73.8915 322.265 73.3692 321.849 72.8744L321.17 72.0804C319.317 70.0649 317.236 68.2716 314.97 66.7364C310.686 63.8422 306.135 61.3643 301.379 59.3367C291.481 55.7964 276.058 52.3222 258.94 56.0262C233.185 61.5832 223.789 80.5607 223.351 83.0698C223.384 84.6935 223.625 86.3063 224.067 87.8688C226.217 97.3011 227.034 106.988 226.492 116.647C226.268 120.332 225.921 124.156 225.405 128.095Z" fill="url(#paint12_linear_2_4506)"/>
</g>
<path d="M302.559 140.095C302.596 139.988 302.622 139.877 302.637 139.765C302.722 139.022 302.858 138.226 303.015 137.397C303.484 135.784 303.87 134.149 304.172 132.497C305.059 129.072 306.254 124.996 307.688 120.02C308.651 116.702 309.232 113.286 309.42 109.837V109.837C309.714 108.832 309.922 107.804 310.043 106.764C311.453 108.431 312.553 110.338 313.291 112.393C316.161 106.049 316.555 96.7657 314.49 93.407L314.27 92.9153L314.172 92.6723C313.736 91.6741 313.198 90.7236 312.566 89.8358L312.47 89.6966C312.806 89.5304 313.097 89.3404 313.409 89.1684C313.721 88.9964 313.7 89.0303 313.834 88.9583C313.875 88.9191 313.922 88.8865 313.973 88.8618C322.505 83.6215 320.832 71.7553 320.832 71.7553C319.737 73.4724 318.061 74.7382 316.11 75.3217C317.993 72.8023 319.264 69.8789 319.821 66.7831C319.189 66.2008 318.592 65.5806 318.035 64.9259C311.476 65.4864 304.873 65.2302 298.377 64.163C298.342 61.9851 297.589 59.8795 296.235 58.1738C289.586 50.784 271.106 60.5292 270.985 60.6041C272.104 56.9418 271.972 53.0113 270.61 49.4323V49.4323C267.351 55.5982 262.771 60.9683 257.197 65.1591C257.143 66.155 257.073 67.1603 256.999 68.0222C256.978 68.1421 256.95 68.2607 256.915 68.3774C256.852 68.9186 256.734 69.4728 256.644 70.0204C255.916 73.9441 254.159 77.6041 251.552 80.6256L247.242 84.4187C244.793 86.0589 242.041 87.194 239.147 87.7575C246.609 93.3994 250.771 103.099 245.498 113.984C243.097 118.528 241.349 123.388 240.304 128.419C239.967 130.176 239.654 131.939 239.381 133.698C243.154 137.382 249.27 143.793 253.545 146.173C263.974 152.063 269.339 164.284 263.916 175.639L265.106 176.075C273.977 179.088 285.359 175.853 293.426 170.774C296.922 168.735 299.916 165.938 302.187 162.588C307.42 153.904 302.521 147.264 302.415 142.622C302.409 141.778 302.457 140.934 302.559 140.095V140.095ZM307.934 97.0188L308.389 97.7211C308.461 98.2213 308.476 98.7281 308.433 99.2317C308.274 98.4828 308.148 97.7548 307.934 97.0188V97.0188Z" fill="#AEFFFF"/>
<path d="M235.37 158.292C235.172 161.678 234.096 164.954 232.246 167.797C232.246 167.797 243.314 183.033 247.62 184.839C251.927 186.645 249.06 177.756 249.06 177.756C249.112 174.645 249.733 171.57 250.893 168.683L235.37 158.292Z" fill="#CC5268"/>
<path d="M224.672 82.7352C214.359 100.501 214.602 129.372 223.182 144.46C231.763 159.548 249.255 170.689 263.365 175.508C272.291 178.561 283.663 175.478 291.692 170.559C295.171 168.595 298.15 165.856 300.398 162.553C305.568 154.023 300.597 147.417 300.449 142.843C300.422 142.017 300.453 141.19 300.542 140.369C300.574 140.265 300.599 140.158 300.617 140.05C301.118 135.629 302.928 129.552 305.49 120.509C308.618 109.402 307.754 97.5065 299.916 86.3956C282.603 61.8993 234.984 64.9699 224.672 82.7352Z" fill="url(#paint13_linear_2_4506)"/>
<path style="mix-blend-mode:multiply" opacity="0.6" d="M224.672 82.7351C214.359 100.5 214.602 129.372 223.183 144.46C231.763 159.548 249.255 170.689 263.365 175.508C272.292 178.56 283.663 175.478 291.692 170.559C291.692 170.559 282.016 172.541 273.665 170.776C265.313 169.01 248.458 159.883 240.724 147.232C232.991 134.581 232.393 122.27 234.273 120.774C236.152 119.278 238.767 122.443 238.767 122.443C238.767 122.443 248.585 142.479 263.357 140.33C274.065 138.797 280.452 102.879 276.175 92.3504C276.175 92.3504 254.48 92.9819 245.883 103.483C245.455 97.3068 247.305 91.1876 251.083 86.2824C257.432 78.0177 268.896 77.5565 279.288 82.7267C289.681 87.8968 292.533 93.3426 292.533 93.3426C292.533 93.3426 302.321 98.7191 303.468 103.827C299.032 108.321 294.882 113.09 291.043 118.106C286.879 123.964 285.799 137.741 286.627 139.928C287.456 142.115 292.624 146.517 296.265 147.144C299.444 147.701 300.392 141.769 300.577 140.274C300.61 140.169 300.635 140.063 300.653 139.955C301.153 135.534 302.964 129.457 305.526 120.414C308.654 109.306 307.79 97.4112 299.951 86.3003C282.603 61.8991 234.985 64.9698 224.672 82.7351Z" fill="url(#paint14_linear_2_4506)"/>
<path d="M217.764 91.8897C214.605 105.266 216.004 120.754 216.004 120.754C220.223 122.655 225.193 130.8 225.554 131.351C225.462 130.592 223.753 118.277 225.871 113.035C228.111 108.095 230.664 103.303 233.514 98.6873L235.811 90.8235C238.35 82.1506 247.085 77.9669 247.085 77.9669C255.016 80.5254 259.913 73.9221 259.913 73.9221C259.913 73.9221 264.108 70.9426 272.26 73.773C280.411 76.6034 290.754 89.1592 290.754 89.1592C294.109 90.4522 297.654 91.1845 301.247 91.327C303.237 93.7258 304.968 96.328 306.411 99.0903C309.233 102.049 311.572 105.433 313.34 109.12C314.173 105.975 314.314 102.687 313.754 99.483C313.193 96.2785 311.944 93.2336 310.094 90.5581C320.179 85.7493 319.504 75.0241 319.504 75.0241C317.741 76.1225 315.662 76.6009 313.597 76.3835C315.849 73.3205 317.215 69.6968 317.544 65.9093C302.655 68.7171 284.405 62.5964 284.405 62.5964C277.668 59.4147 268.2 61.4465 268.2 61.4465C270.138 56.0328 267.72 50.3921 267.72 50.3921C265.926 57.9867 255.369 66.8743 249.664 67.8678C243.959 68.8613 231.578 66.6357 222.573 80.0152C220.278 83.6566 218.649 87.6775 217.764 91.8897V91.8897Z" fill="url(#paint15_linear_2_4506)"/>
<path d="M276.154 92.3844C275.378 94.9246 273.882 97.1856 271.849 98.8945C271.849 98.8945 260.937 97.6755 255.179 99.2772C251.862 100.168 248.718 101.612 245.881 103.548C245.881 103.548 256.455 91.0818 276.154 92.3844Z" fill="url(#paint16_linear_2_4506)"/>
<path d="M306.532 101.861C306.532 101.861 299.233 105.387 291.56 117.232C291.56 117.232 302.946 104.777 307.111 110.416C307.111 110.416 309.014 104.167 306.532 101.861Z" fill="url(#paint17_linear_2_4506)"/>
<path d="M271.667 125.402C271.667 125.402 274.147 114.517 266.419 109.73C260.171 105.849 250.994 109.333 245.419 120.29L271.667 125.402Z" fill="#6D3A51"/>
<path d="M276.823 143.109C276.823 143.109 282.609 138.707 285.244 139.924C287.879 141.142 291.373 147.321 291.373 147.321C289.196 148.237 286.771 148.381 284.5 147.728C281.629 146.781 279.005 145.202 276.823 143.109V143.109Z" fill="#F58E6F"/>
<path d="M267.405 136.112C272.003 131.043 274.414 118.369 266.123 112.298C257.831 106.227 245.307 115.504 244.193 124.164C243.13 132.501 261.443 142.684 267.405 136.112Z" fill="url(#paint18_linear_2_4506)"/>
<path fill-rule="evenodd" clip-rule="evenodd" d="M291.368 147.345C291.368 147.345 288.416 148.343 283.629 146.488C277.704 144.196 276.823 143.109 276.823 143.109C276.515 143.204 276.24 143.382 276.026 143.624C275.812 143.865 275.669 144.16 275.611 144.477C275.554 144.794 275.584 145.121 275.699 145.422C275.815 145.723 276.01 145.987 276.265 146.184C277.516 147.566 281.036 152.652 286.143 153.095C288.438 153.288 292.041 149.367 291.368 147.345Z" fill="#DD6668"/>
<path d="M299.717 141.234C298.465 144.017 296.614 146.05 294.317 145.261C292.22 144.406 290.431 142.936 289.186 141.044C287.94 139.153 287.297 136.929 287.34 134.664C287.45 130.474 295.118 118.486 300.307 119.789C304.69 120.889 302.158 135.771 299.717 141.234Z" fill="url(#paint19_linear_2_4506)"/>
<path d="M258.226 126.185C256.557 133.253 258.434 139.762 262.483 140.744C266.532 141.726 271.178 136.784 272.908 129.73C274.639 122.677 272.697 116.166 268.658 115.199C264.618 114.232 259.963 119.159 258.226 126.185Z" fill="url(#paint20_linear_2_4506)"/>
<path d="M261.015 126.534C259.797 131.691 261.162 136.423 264.109 137.145C267.055 137.867 270.467 134.262 271.709 129.111C272.952 123.96 271.562 119.222 268.612 118.512C265.663 117.803 262.254 121.395 261.015 126.534Z" fill="#402F40"/>
<path d="M293.712 135.665C292.437 141.83 293.289 147.205 295.579 147.745C297.87 148.286 300.785 143.608 302.057 137.455C303.33 131.302 302.481 125.916 300.178 125.372C297.875 124.828 295.021 129.521 293.712 135.665Z" fill="url(#paint21_linear_2_4506)"/>
<path d="M296.05 136.114C295.117 140.614 295.73 144.535 297.419 144.882C299.109 145.229 301.203 141.896 302.142 137.371C303.081 132.847 302.447 128.96 300.757 128.612C299.068 128.265 296.944 131.617 296.05 136.114Z" fill="#402F40"/>
<path fill-rule="evenodd" clip-rule="evenodd" d="M287.801 127.234C287.801 127.234 285.867 137.123 287.563 140.511C288.783 142.695 290.31 144.694 292.098 146.444C293.289 147.916 290.417 152.902 286.192 153.107C286.192 153.107 292.002 150.845 291.429 147.36C291.183 145.879 286.895 143.173 286.26 139.673C285.302 134.752 287.801 127.234 287.801 127.234Z" fill="#CC5268"/>
<path fill-rule="evenodd" clip-rule="evenodd" d="M281.106 150.108C281.106 150.108 284.761 148.54 276.542 146.108C276.542 146.108 277.574 146.83 279.155 148.018C279.931 148.587 280.592 149.296 281.106 150.108V150.108Z" fill="#A13751"/>
<path d="M285.646 158.268C284.367 158.562 283.04 158.579 281.754 158.318C279.708 157.835 271.308 153.265 267.714 151.123C265.587 149.893 263.634 148.383 261.907 146.635L260.947 147.029C263.688 150.811 266.895 154.232 270.492 157.211C275.823 161.418 278.914 162.239 280.253 162.374C281.592 162.509 284.972 159.259 284.972 159.259L285.646 158.268Z" fill="#8B2E45"/>
<path d="M283.454 158.513C283.454 158.513 280.894 161.465 279.278 161.575C277.661 161.684 271.067 158.006 267.576 154.117L265.528 149.753C265.528 149.753 278.99 158.467 283.454 158.513Z" fill="#FFEBED"/>
<path style="mix-blend-mode:multiply" opacity="0.6" d="M264.202 146.168L263.267 144.654C261.317 145.376 259.647 146.698 258.496 148.429C258.496 148.429 263.045 146.141 264.202 146.168Z" fill="url(#paint22_linear_2_4506)"/>
<path d="M255.166 119.1C254.982 119.404 254.892 119.757 254.907 120.112C254.923 120.468 255.044 120.811 255.254 121.098C255.465 121.385 255.756 121.603 256.091 121.725C256.425 121.847 256.788 121.866 257.134 121.781C257.48 121.697 257.793 121.511 258.033 121.248C258.273 120.986 258.431 120.658 258.484 120.306C258.538 119.954 258.487 119.594 258.336 119.271C258.185 118.949 257.942 118.678 257.637 118.494C257.436 118.37 257.212 118.287 256.978 118.25C256.744 118.214 256.505 118.224 256.275 118.28C256.045 118.337 255.829 118.438 255.639 118.579C255.448 118.72 255.288 118.897 255.166 119.1V119.1Z" fill="white"/>
<path d="M293.767 126.289C293.561 126.64 293.5 127.057 293.598 127.452C293.695 127.848 293.943 128.189 294.289 128.404C294.549 128.56 294.849 128.635 295.152 128.621C295.455 128.606 295.747 128.502 295.991 128.322C296.235 128.142 296.42 127.893 296.523 127.608C296.626 127.323 296.642 127.013 296.569 126.719C296.497 126.424 296.338 126.158 296.114 125.953C295.891 125.749 295.611 125.615 295.311 125.569C295.012 125.523 294.705 125.567 294.43 125.695C294.155 125.823 293.924 126.03 293.767 126.289V126.289Z" fill="white"/>
<path d="M302.676 126.789C302.676 126.789 303.456 120.365 300.206 118.627C296.956 116.89 288.792 127.093 287.488 133.38C287.488 133.38 293.126 121.883 300.265 121.719C300.265 121.719 302.35 122.638 302.676 126.789Z" fill="#6D3A51"/>
<path d="M267.687 50.4749C268.135 54.0431 267.831 57.6655 266.795 61.1092C265.759 64.5529 264.014 67.7418 261.672 70.4707C253.63 80.2627 245.696 70.0475 245.696 70.0475C245.696 70.0475 257.768 68.2168 267.687 50.4749Z" fill="url(#paint23_linear_2_4506)"/>
<path d="M317.512 65.992C317.512 65.992 313.729 77.6821 305.367 80.2337C297.005 82.7853 286.836 63.4162 286.836 63.4162C286.836 63.4162 302.3 67.9217 317.512 65.992Z" fill="url(#paint24_linear_2_4506)"/>
<path style="mix-blend-mode:multiply" opacity="0.91" d="M310.061 90.6408L301.212 91.422L306.003 98.5154C308.366 97.6412 310.48 96.2054 312.164 94.3318C311.604 93.0263 310.899 91.7881 310.061 90.6408V90.6408Z" fill="url(#paint25_linear_2_4506)"/>
<path style="mix-blend-mode:multiply" opacity="0.91" d="M319.509 75.1156C319.509 75.1156 315.932 79.9097 306.014 82.9731C300.717 84.5003 295.605 86.6065 290.77 89.2537C290.77 89.2537 303.596 94.6363 311.472 89.9265C319.348 85.2168 319.509 75.1156 319.509 75.1156Z" fill="url(#paint26_linear_2_4506)"/>
<path style="mix-blend-mode:multiply" opacity="0.91" d="M217.764 91.8897C214.605 105.266 216.004 120.753 216.004 120.753C220.223 122.655 225.193 130.8 225.554 131.351C225.462 130.592 223.753 118.277 225.871 113.035C228.111 108.095 230.664 103.303 233.514 98.6872L235.811 90.8235C238.35 82.1505 247.085 77.9669 247.085 77.9669C247.085 77.9669 239.993 75.5806 236.794 73.0793C236.794 73.0793 239.383 77.9973 241.277 79.2334C241.277 79.2334 236.496 88.1401 229.286 93.3693C222.077 98.5985 217.764 91.8897 217.764 91.8897Z" fill="url(#paint27_linear_2_4506)"/>
<path d="M223.639 127.962C223.639 127.962 217.812 119.176 208.687 118.223C199.561 117.271 198.072 135.516 207.558 144.908C217.044 154.3 224.159 149.088 225.255 146.088C226.352 143.088 223.639 127.962 223.639 127.962Z" fill="url(#paint28_linear_2_4506)"/>
<path style="mix-blend-mode:multiply" opacity="0.6" fill-rule="evenodd" clip-rule="evenodd" d="M222.967 136.339C222.967 136.339 218.066 127.901 211.539 126.462C205.011 125.024 204.55 136.451 204.55 136.451C204.956 136.024 205.481 135.728 206.057 135.601C206.634 135.475 207.234 135.523 207.783 135.741C209.483 139.325 212.091 142.402 215.348 144.666C215.348 144.666 209.112 138.214 209.23 134.323C209.23 134.323 212.423 142.708 217.983 143.038C223.544 143.368 222.967 136.339 222.967 136.339Z" fill="url(#paint29_linear_2_4506)"/>
<path fill-rule="evenodd" clip-rule="evenodd" d="M221.697 141.497C221.697 141.497 214.947 139.903 213.76 136.441C213.416 135.477 213.386 134.428 213.676 133.446C213.967 132.464 214.561 131.599 215.374 130.977C215.374 130.977 220.496 133.001 222.061 136.888C222.447 138.423 222.319 140.042 221.697 141.497Z" fill="#CC5268"/>
<path d="M240.527 134.266C240.301 134.645 240.193 135.082 240.214 135.522C240.236 135.963 240.387 136.387 240.648 136.742C240.91 137.097 241.271 137.367 241.685 137.518C242.099 137.669 242.549 137.694 242.978 137.591C243.406 137.487 243.795 137.259 244.095 136.936C244.395 136.612 244.592 136.208 244.663 135.772C244.734 135.337 244.675 134.891 244.493 134.489C244.311 134.087 244.014 133.748 243.641 133.514C243.388 133.354 243.106 133.246 242.811 133.197C242.517 133.149 242.215 133.16 241.924 133.23C241.634 133.3 241.361 133.428 241.121 133.606C240.881 133.784 240.679 134.008 240.527 134.266Z" fill="#FFBBA6"/>
<path d="M289.849 89.3205C289.849 89.3205 300.202 66.728 293.484 59.3605C286.766 51.9931 268.192 61.535 268.192 61.535C267.049 64.5889 265.542 67.494 263.704 70.1876C263.704 70.1876 275.457 68.0618 283.308 72.8775C291.159 77.6931 289.849 89.3205 289.849 89.3205Z" fill="url(#paint30_linear_2_4506)"/>
<path d="M294.248 60.343C295.405 62.9427 295.932 65.779 295.785 68.6207C297.885 67.4485 298.362 64.1726 298.362 64.1726L294.248 60.343Z" fill="#AEFFFF"/>
<path d="M310.061 90.6409L308.195 91.2606L312.118 91.2429L310.061 90.6409Z" fill="#AEFFFF"/>
<path d="M268.937 56.6802C268.651 60.0986 267.496 63.3871 265.582 66.2339C266.175 66.5162 270.906 60.1196 270.906 60.1196L268.937 56.6802Z" fill="#AEFFFF"/>
<path fill-rule="evenodd" clip-rule="evenodd" d="M326.638 71.6518C326.263 71.0314 325.835 70.4455 325.357 69.9009L324.65 69.0614C322.632 66.8805 320.362 64.9466 317.889 63.3004C313.282 60.1923 308.389 57.5299 303.277 55.3492C285.321 47.4875 261.066 42.0955 242.322 44.0317C217.486 46.5727 200.904 62.5729 190.939 76.0748C187.861 80.2515 185.043 84.6133 182.5 89.1355C175.09 102.168 177.585 146.365 196.416 163.719C215.247 181.073 247.159 187.342 269.232 187.188C281.947 187.03 294.464 184.024 305.865 178.393C306.172 178.263 306.471 178.113 306.76 177.945C311.145 175.822 315.073 172.861 318.323 169.231C318.507 169.002 318.635 168.787 318.818 168.559C329.88 152.768 346.69 103.274 326.638 71.6518ZM316.098 165.019C315.951 165.204 315.822 165.42 315.645 165.624C310.4 169.868 292.723 180.54 265.786 171.334C232.694 159.988 231.189 130.327 231.189 130.327L224.688 128.611C225.288 124.317 225.637 120.377 225.809 116.745C226.748 96.3392 222.168 85.9978 222.661 83.088C223.254 79.6458 233.315 61.032 258.744 55.5403C273.048 52.6071 287.888 53.746 301.577 58.8273C306.367 60.859 310.951 63.3489 315.262 66.2625C317.581 67.807 319.715 69.6127 321.622 71.6441L322.3 72.4381C322.732 72.9625 323.134 73.5107 323.503 74.0801C331.288 86.4068 333.119 101.596 331.881 116.15C330.109 136.85 322.206 156.349 316.098 165.019V165.019Z" fill="url(#paint31_linear_2_4506)"/>
<path opacity="0.3" d="M316.101 165.007C315.948 165.217 315.807 165.429 315.645 165.624C310.385 169.878 292.72 180.553 265.774 171.331C232.682 159.985 231.198 130.342 231.198 130.342L224.688 128.611C225.276 124.314 225.627 120.362 225.8 116.73C226.8 96.3386 222.171 85.9856 222.677 83.0788C223.255 79.6458 233.318 61.0198 258.747 55.5281C275.618 51.8304 290.89 55.0105 301.577 58.8274C306.385 60.8816 310.99 63.3807 315.333 66.2921C317.645 67.8402 319.774 69.6445 321.68 71.6709L322.347 72.462C322.781 72.9843 323.183 73.5326 323.55 74.104C331.346 86.4336 333.181 101.61 331.951 116.179C330.118 136.865 322.194 156.346 316.101 165.007Z" fill="url(#paint32_radial_2_4506)"/>
<path style="mix-blend-mode:screen" d="M316.101 165.007C315.948 165.217 315.807 165.429 315.645 165.624C310.385 169.878 292.72 180.553 265.774 171.331C232.682 159.985 231.198 130.342 231.198 130.342L224.688 128.611C225.276 124.314 225.627 120.362 225.8 116.73C226.8 96.3386 222.171 85.9856 222.677 83.0788C223.255 79.6458 233.318 61.0198 258.747 55.5281C275.618 51.8304 290.89 55.0105 301.577 58.8274C306.385 60.8816 310.99 63.3807 315.333 66.2921C317.645 67.8402 319.774 69.6445 321.68 71.6709L322.347 72.462C322.781 72.9843 323.183 73.5326 323.55 74.104C331.346 86.4336 333.181 101.61 331.951 116.179C330.118 136.865 322.194 156.346 316.101 165.007Z" fill="url(#paint33_radial_2_4506)"/>
<path style="mix-blend-mode:multiply" fill-rule="evenodd" clip-rule="evenodd" d="M305.828 178.385C294.427 184.008 281.916 187.017 269.205 187.195C247.175 187.385 215.21 181.065 196.391 163.714C177.573 146.363 175.102 102.171 182.5 89.1357C185.045 84.6145 187.863 80.2528 190.939 76.075C192.465 74.721 194.314 73.7816 196.307 73.3466C198.301 72.9117 200.372 72.9957 202.324 73.5908C218.297 78.514 215.919 132.063 215.919 132.063L223.955 132.318C223.955 132.318 225.222 163.371 256.238 177.537C283.333 189.962 301.695 180.28 305.828 178.385Z" fill="url(#paint34_linear_2_4506)"/>
<path fill-rule="evenodd" clip-rule="evenodd" d="M188.467 153.242C195.493 161.109 210.041 159.967 214.94 133.034C219.839 106.101 207.746 77.7939 207.746 77.7939C229.971 82.9133 221.353 129.699 221.353 129.699C220.686 131.649 220.038 133.462 219.367 135.153L219.324 135.337C205.176 171.259 189.79 154.757 188.467 153.242Z" fill="url(#paint35_linear_2_4506)"/>
<path fill-rule="evenodd" clip-rule="evenodd" d="M180.913 92.8991C184.328 83.9155 190.822 78.3232 196.132 79.1117C201.442 79.9002 212.73 105.263 206.552 131.751C200.374 158.24 184.27 147.518 182.044 136.956L180.711 131.158C180.711 131.158 191.711 149.637 200.419 134.066C210.359 116.29 197.762 90.5541 189.405 92.8095C181.048 95.0649 178.642 110.184 178.642 110.184C178.642 110.184 178.625 98.8638 180.913 92.8991Z" fill="#53345F"/>
<path d="M234.276 84.1238C234.276 84.1238 235.311 76.13 236.422 73.8319C240.151 71.3975 244.322 69.7196 248.698 68.8937L251.772 83.5869C251.772 83.5869 238.135 83.3926 234.276 84.1238Z" fill="white"/>
<path d="M238.285 132.314C238.285 132.314 239.214 139.335 241.885 143.743L246.093 141.969C246.093 141.969 243.746 135.478 242.871 131.625L238.285 132.314Z" fill="white"/>
<path style="mix-blend-mode:lighten" d="M318.782 168.55C318.614 168.769 318.467 169.006 318.29 169.21C312.68 173.743 293.839 185.124 265.123 175.29C229.839 163.206 228.253 131.587 228.253 131.587L221.329 129.693C221.956 125.121 222.337 120.878 222.507 117.038C222.507 117.038 287.883 65.9395 335.586 116.559C333.718 138.543 325.28 159.325 318.782 168.55Z" fill="url(#paint36_linear_2_4506)"/>
<path style="mix-blend-mode:screen" d="M301.8 96.708C301.441 101.24 292.951 104.279 282.832 103.48C272.713 102.681 264.875 98.3597 265.176 93.8009C265.476 89.242 274.025 86.23 284.131 87.0261C294.238 87.8221 302.15 92.1607 301.8 96.708Z" fill="url(#paint37_radial_2_4506)"/>
<path style="mix-blend-mode:screen" d="M318.846 175.833C314.383 174.909 314.381 156.79 318.831 135.377C323.28 113.963 330.515 97.3464 334.978 98.2711C339.441 99.1958 339.443 117.315 334.991 138.74C330.539 160.166 323.309 176.758 318.846 175.833Z" fill="url(#paint38_radial_2_4506)"/>
<path d="M245.329 53.6397C245.329 53.6397 266.839 47.9855 280.084 49.7296C280.084 49.7296 233.713 38.9207 245.329 53.6397Z" fill="white"/>
<path d="M213.679 97.5207L221.743 96.1789L222.828 104.945L215.103 105.565L213.679 97.5207Z" fill="white"/>
<path fill-rule="evenodd" clip-rule="evenodd" d="M253.909 238.766L254.018 220.014L251.888 238.289L251.92 246.806L253.909 238.766Z" fill="#00FFFF"/>
<path fill-rule="evenodd" clip-rule="evenodd" d="M391.08 183.206L391.77 152.136L401.903 147.947L432.826 163.384L428.485 183.025L400.764 191.209L391.08 183.206Z" fill="#0059FF"/>
<path style="mix-blend-mode:multiply" fill-rule="evenodd" clip-rule="evenodd" d="M395.061 166.351L391.08 183.206L400.765 191.209L428.485 183.025L395.061 166.351Z" fill="url(#paint39_linear_2_4506)"/>
<path opacity="0.55" fill-rule="evenodd" clip-rule="evenodd" d="M400.765 191.209L406.438 184.272L432.826 163.384L428.485 183.026L400.765 191.209Z" fill="#00C5FF"/>
<g style="mix-blend-mode:multiply">
<path fill-rule="evenodd" clip-rule="evenodd" d="M400.764 191.209L406.438 184.272L396.208 175.946L391.08 183.206L400.764 191.209Z" fill="#12908B"/>
</g>
<path style="mix-blend-mode:multiply" fill-rule="evenodd" clip-rule="evenodd" d="M396.208 175.946L401.903 147.947L391.77 152.136L391.08 183.206L396.208 175.946Z" fill="url(#paint40_linear_2_4506)"/>
<path opacity="0.75" fill-rule="evenodd" clip-rule="evenodd" d="M391.77 152.136L395.06 166.35L428.485 183.025L432.826 163.384L401.903 147.947L391.77 152.136Z" fill="#5CF4FF"/>
<path fill-rule="evenodd" clip-rule="evenodd" d="M417.402 178.805L413.691 182.364L416.723 183.817L421.676 180.861L417.402 178.805Z" fill="white"/>
<path fill-rule="evenodd" clip-rule="evenodd" d="M395.06 166.351L391.08 183.206L391.77 152.136L395.06 166.351Z" fill="#5CF4FF"/>
<g style="mix-blend-mode:color">
<path style="mix-blend-mode:color-burn" fill-rule="evenodd" clip-rule="evenodd" d="M37.76 290.651C40.8037 293.077 44.1074 295.159 47.6104 296.857C65.7395 305.574 83.0072 298.827 99.7824 292.249C107.221 289.337 114.915 286.33 122.475 284.818C126.042 284.103 129.671 283.743 133.308 283.742C123.149 295.711 113.75 306.98 110.807 311.225C108.584 314.231 107.087 320.408 107.003 320.763C106.139 323.599 105.25 326.816 104.41 330.044C104.184 331 103.959 331.955 103.662 332.881C103.206 332.783 102.744 332.708 102.28 332.658L97.7726 352.454C81.3055 357.618 77.1461 371.069 77.1461 371.069C89.5051 377.44 104.593 363.441 105.898 362.184L105.995 362.104L107.725 358.503L124.911 355.552C125.692 355.494 126.467 355.365 127.226 355.168C126.953 354.353 126.643 353.582 126.344 352.826C131.772 351.089 137.046 348.904 142.112 346.294C142.916 345.902 143.785 345.396 144.673 344.868C145.827 344.198 146.938 343.459 148.002 342.654C151.587 340.125 154.718 337.49 154.721 337.477C158.839 334.389 164.01 330.618 168.83 327.023C168.731 327.439 168.676 327.672 168.673 327.684L169.078 327.78C169.078 327.78 169.173 327.376 169.259 326.685C176.949 321.064 183.666 316.223 183.666 316.223L184.511 316.423L195.109 318.809C195.161 319.08 195.198 319.361 195.248 319.644L195.508 321.335C195.921 324.187 196.19 327.264 196.336 330.48L196.289 330.676C196.41 333.394 196.459 336.199 196.45 339.029L196.113 350.369C195.666 358.89 194.859 366.963 194.149 372.925L192.857 372.918L191.862 382.279L189.496 385.509L215.098 408.911C215.9 405.628 215.684 402.179 214.481 399.022C213.277 395.864 211.142 393.147 208.358 391.231C213.214 390.934 217.974 389.748 222.402 387.732C224.295 386.892 226.098 385.862 227.783 384.658C226.697 382.734 225.138 381.119 223.253 379.967C232.052 374.195 241.735 366.433 244.663 358.744C248.961 347.499 246.165 317.831 246.75 303.303C246.785 302.445 246.805 301.648 246.835 300.918L249.243 287.493C253.134 271.575 254.694 255.176 253.873 238.809C254.253 237.8 254.589 236.818 254.933 235.852C255.583 233.975 256.143 232.155 256.657 230.362C259.91 236.795 265.213 244.785 272.718 248.381C273.294 248.658 273.883 248.905 274.483 249.121C275.184 249.386 275.902 249.603 276.632 249.771C279.255 250.358 281.946 250.589 284.63 250.457C287.374 250.461 290.109 250.157 292.785 249.551C295.26 249.036 297.091 248.511 297.091 248.511C301.442 247.37 305.689 245.868 309.791 244.023V244.023L309.912 243.948C319.345 239.709 327.365 233.843 330.132 228.095C333.324 228.267 334.881 226.113 335.497 223.064C337.762 222.435 339.973 221.625 342.109 220.642C348.474 217.903 353.874 213.324 357.617 207.492C364.657 195.808 359.264 193.837 359.264 193.837C348.025 192.139 344.318 195.571 344.318 195.571L343.165 192.621C339.525 194.972 336.352 197.976 333.805 201.481C333.016 200.001 331.76 198.036 330.091 197.655C327.262 196.987 322.579 200.55 310.378 202.272C298.177 203.995 275.678 197.298 269.351 192.984C267.638 191.834 265.853 190.795 264.007 189.873C266.754 190.017 269.419 190.065 271.95 190.029C284.768 189.798 297.364 186.642 308.776 180.801C309.086 180.669 309.386 180.516 309.673 180.34C314.092 178.123 318.04 175.072 321.3 171.356C321.484 171.128 321.615 170.9 321.798 170.672C332.989 154.446 350.12 103.645 330.215 71.3975C329.833 70.7728 329.408 70.1755 328.943 69.6099L328.236 68.7704C326.233 66.5525 323.972 64.5814 321.501 62.8991C316.902 59.7245 312.004 57.0044 306.879 54.7771C288.939 46.79 264.687 41.4377 245.905 43.5331C244.75 43.6612 243.638 43.8253 242.517 44.0262L242.333 43.9828C217.486 46.5727 200.907 62.5607 190.926 76.072C188.895 78.8126 187.15 81.4395 185.643 83.8771L185.452 84.1941C185.204 84.5881 184.955 84.9821 184.734 85.3177C184.693 85.4892 184.555 85.6376 184.456 85.7824C184.199 86.2131 183.945 86.6316 183.721 87.0314C183.294 87.7453 182.894 88.4527 182.521 89.1017C181.813 90.3913 181.244 91.7527 180.825 93.1629C179.966 95.8328 179.41 98.5907 179.168 101.385C177.99 113.408 178.997 125.546 182.139 137.211C182.236 137.622 182.345 138.036 182.482 138.443C185.351 148.471 189.901 157.681 196.391 163.714C202.632 169.285 209.757 173.778 217.474 177.008L215.833 176.621C213.405 177.001 211.071 177.836 208.953 179.083C208.353 179.413 207.728 179.698 207.084 179.935V179.935L205.234 180.649L198.259 182.804C194.464 183.977 190.064 185.304 187.633 185.959C186.211 186.321 184.784 186.67 183.351 187.004L183.207 186.905L173.419 189.029C172.155 189.235 170.948 189.416 169.79 189.556C156.235 191.205 147.163 186.799 142.646 185.991C142.569 185.914 142.487 185.842 142.399 185.777L142.27 185.941C140.936 185.836 139.599 186.092 138.399 186.682C137.199 187.273 136.181 188.176 135.451 189.297L132.203 189.138L132.023 189.354C131.307 186.467 129.631 183.91 127.27 182.101L125.492 185.794C125.492 185.794 117.823 175.279 108.047 178.505C107.748 182.503 108.372 186.516 109.871 190.233C111.37 193.951 113.704 197.274 116.692 199.946C118.52 201.643 120.519 203.146 122.655 204.432C121.184 209.62 125.462 213.191 125.462 213.191L125.581 213.62C125.622 213.729 125.656 213.841 125.683 213.954L125.807 214.359C127.714 219.958 130.733 225.114 134.682 229.517V229.517L134.848 229.633C138.761 233.962 143.571 237.384 148.943 239.661C152.39 241.101 156.105 241.784 159.838 241.665V241.665C163.823 241.641 167.769 240.881 171.477 239.422V239.422L172.237 239.161C169.927 242.066 167.428 244.816 164.758 247.392L156.802 256.493C144.45 252.994 128.259 245.433 107.63 230.487C73.6901 205.866 46.8426 216.596 34.1432 233.242C21.7382 249.517 19.5975 276.106 37.76 290.651ZM38.1117 236.261C49.9764 220.686 73.7037 212.051 104.737 234.524C124.564 248.867 140.596 256.662 153.271 260.6L146.474 268.461L146.314 268.591C143.448 271.911 140.453 275.394 137.415 278.892C132.07 278.544 126.702 278.903 121.45 279.959C113.445 281.547 105.548 284.648 97.8966 287.639C78.588 295.197 60.3485 302.335 40.8348 286.721C25.0663 274.086 27.1511 250.692 38.1117 236.261Z" fill="url(#paint41_radial_2_4506)"/>
</g>
<defs>
<radialGradient id="paint0_radial_2_4506" cx="0" cy="0" r="1" gradientUnits="userSpaceOnUse" gradientTransform="translate(306.181 198.402) rotate(25.3824) scale(38.6262 38.6262)">
<stop stop-color="#F4DBEE"/>
<stop offset="1" stop-color="#D1BDE5"/>
</radialGradient>
<linearGradient id="paint1_linear_2_4506" x1="261.548" y1="188.885" x2="302.942" y2="208.525" gradientUnits="userSpaceOnUse">
<stop stop-color="#9579A7"/>
<stop offset="1" stop-color="white"/>
</linearGradient>
<radialGradient id="paint2_radial_2_4506" cx="0" cy="0" r="1" gradientUnits="userSpaceOnUse" gradientTransform="translate(264.199 327.115) rotate(25.3824) scale(41.1743 41.1743)">
<stop stop-color="#F4F1FF"/>
<stop offset="1" stop-color="#D1BDE5"/>
</radialGradient>
<radialGradient id="paint3_radial_2_4506" cx="0" cy="0" r="1" gradientUnits="userSpaceOnUse" gradientTransform="translate(187.016 182.941) rotate(25.3824) scale(42.1583 42.1583)">
<stop stop-color="#F4DBEE"/>
<stop offset="1" stop-color="#D1BDE5"/>
</radialGradient>
<radialGradient id="paint4_radial_2_4506" cx="0" cy="0" r="1" gradientUnits="userSpaceOnUse" gradientTransform="translate(168.203 289.807) rotate(25.3824) scale(49.6514 49.6514)">
<stop stop-color="#F4F1FF"/>
<stop offset="1" stop-color="#D1BDE5"/>
</radialGradient>
<linearGradient id="paint5_linear_2_4506" x1="130.541" y1="223.25" x2="262.176" y2="285.706" gradientUnits="userSpaceOnUse">
<stop stop-color="white"/>
<stop offset="1" stop-color="#9579A7"/>
</linearGradient>
<linearGradient id="paint6_linear_2_4506" x1="209.876" y1="358.504" x2="240.841" y2="373.196" gradientUnits="userSpaceOnUse">
<stop stop-color="white"/>
<stop offset="1" stop-color="#9579A7"/>
</linearGradient>
<linearGradient id="paint7_linear_2_4506" x1="116.049" y1="324.277" x2="145.214" y2="338.114" gradientUnits="userSpaceOnUse">
<stop stop-color="white"/>
<stop offset="1" stop-color="#9579A7"/>
</linearGradient>
<linearGradient id="paint8_linear_2_4506" x1="128.105" y1="173.059" x2="148.21" y2="182.597" gradientUnits="userSpaceOnUse">
<stop stop-color="white"/>
<stop offset="1" stop-color="#9579A7"/>
</linearGradient>
<linearGradient id="paint9_linear_2_4506" x1="347.044" y1="193.998" x2="359.273" y2="199.801" gradientUnits="userSpaceOnUse">
<stop stop-color="#9579A7"/>
<stop offset="1" stop-color="white"/>
</linearGradient>
<linearGradient id="paint10_linear_2_4506" x1="313.693" y1="48.7" x2="281.405" y2="116.751" gradientUnits="userSpaceOnUse">
<stop stop-color="#007C7E"/>
<stop offset="1" stop-color="#0F183B"/>
</linearGradient>
<radialGradient id="paint11_radial_2_4506" cx="0" cy="0" r="1" gradientUnits="userSpaceOnUse" gradientTransform="translate(274.127 96.571) rotate(25.3824) scale(108.448 108.448)">
<stop stop-color="#00C6FF"/>
<stop offset="0.15" stop-color="#00AEE0"/>
<stop offset="0.47" stop-color="#007090"/>
<stop offset="0.93" stop-color="#000E12"/>
<stop offset="1"/>
</radialGradient>
<linearGradient id="paint12_linear_2_4506" x1="349.833" y1="99.776" x2="236.851" y2="89.119" gradientUnits="userSpaceOnUse">
<stop stop-color="#00C6FF"/>
<stop offset="0.15" stop-color="#00AEE0"/>
<stop offset="0.47" stop-color="#007090"/>
<stop offset="0.93" stop-color="#000E12"/>
<stop offset="1"/>
</linearGradient>
<linearGradient id="paint13_linear_2_4506" x1="234.78" y1="168.855" x2="286.731" y2="83.61" gradientUnits="userSpaceOnUse">
<stop offset="0.02" stop-color="#FFAE78"/>
<stop offset="1" stop-color="#FF957C"/>
</linearGradient>
<linearGradient id="paint14_linear_2_4506" x1="233.373" y1="167.997" x2="285.325" y2="82.7524" gradientUnits="userSpaceOnUse">
<stop offset="0.02" stop-color="#F0C2D6"/>
<stop offset="0.99" stop-color="#BD89C4"/>
</linearGradient>
<linearGradient id="paint15_linear_2_4506" x1="236.695" y1="146.691" x2="290.565" y2="58.2995" gradientUnits="userSpaceOnUse">
<stop offset="0.01" stop-color="#813645"/>
<stop offset="1" stop-color="#BD5042"/>
</linearGradient>
<linearGradient id="paint16_linear_2_4506" x1="251.188" y1="115.298" x2="264.292" y2="93.7959" gradientUnits="userSpaceOnUse">
<stop offset="0.01" stop-color="#813645"/>
<stop offset="1" stop-color="#BD5042"/>
</linearGradient>
<linearGradient id="paint17_linear_2_4506" x1="292.191" y1="126.324" x2="303.063" y2="108.484" gradientUnits="userSpaceOnUse">
<stop offset="0.01" stop-color="#813645"/>
<stop offset="1" stop-color="#BD5042"/>
</linearGradient>
<linearGradient id="paint18_linear_2_4506" x1="248.689" y1="141.657" x2="262.631" y2="118.781" gradientUnits="userSpaceOnUse">
<stop stop-color="white"/>
<stop offset="1" stop-color="#D0C7F8"/>
</linearGradient>
<linearGradient id="paint19_linear_2_4506" x1="286.333" y1="149.325" x2="299.398" y2="127.888" gradientUnits="userSpaceOnUse">
<stop stop-color="white"/>
<stop offset="1" stop-color="#D0C7F8"/>
</linearGradient>
<linearGradient id="paint20_linear_2_4506" x1="260.931" y1="150.437" x2="267.206" y2="124.864" gradientUnits="userSpaceOnUse">
<stop offset="0.01" stop-color="#6F8B8B"/>
<stop offset="0.98" stop-color="#5C435B"/>
</linearGradient>
<linearGradient id="paint21_linear_2_4506" x1="290.103" y1="136.38" x2="294.612" y2="114.096" gradientUnits="userSpaceOnUse">
<stop offset="0.01" stop-color="#6F8B8B"/>
<stop offset="0.98" stop-color="#5C435B"/>
</linearGradient>
<linearGradient id="paint22_linear_2_4506" x1="256.057" y1="155.84" x2="259.715" y2="151.19" gradientUnits="userSpaceOnUse">
<stop offset="0.01" stop-color="#BD89C4"/>
<stop offset="0.98" stop-color="#F0C2D6"/>
</linearGradient>
<linearGradient id="paint23_linear_2_4506" x1="247.938" y1="80.8979" x2="262.999" y2="56.1847" gradientUnits="userSpaceOnUse">
<stop offset="0.01" stop-color="#AA454F"/>
<stop offset="1" stop-color="#D98638"/>
</linearGradient>
<linearGradient id="paint24_linear_2_4506" x1="291.957" y1="83.1564" x2="302.62" y2="65.6607" gradientUnits="userSpaceOnUse">
<stop offset="0.01" stop-color="#B14D4E"/>
<stop offset="1" stop-color="#D98638"/>
</linearGradient>
<linearGradient id="paint25_linear_2_4506" x1="307.418" y1="102.934" x2="298.171" y2="97.2982" gradientUnits="userSpaceOnUse">
<stop offset="0.02" stop-color="#F0C2D6"/>
<stop offset="0.99" stop-color="#BD89C4"/>
</linearGradient>
<linearGradient id="paint26_linear_2_4506" x1="295.691" y1="100.957" x2="309.731" y2="77.9192" gradientUnits="userSpaceOnUse">
<stop offset="0.01" stop-color="#BD89C4"/>
<stop offset="0.98" stop-color="#F0C2D6"/>
</linearGradient>
<linearGradient id="paint27_linear_2_4506" x1="210.446" y1="130.694" x2="239.967" y2="82.2556" gradientUnits="userSpaceOnUse">
<stop offset="0.01" stop-color="#BD89C4"/>
<stop offset="0.98" stop-color="#F0C2D6"/>
</linearGradient>
<linearGradient id="paint28_linear_2_4506" x1="211.319" y1="158.824" x2="219.59" y2="131.291" gradientUnits="userSpaceOnUse">
<stop offset="0.02" stop-color="#FF8359"/>
<stop offset="1" stop-color="#FF8B7C"/>
</linearGradient>
<linearGradient id="paint29_linear_2_4506" x1="224.737" y1="149.044" x2="206.683" y2="143.62" gradientUnits="userSpaceOnUse">
<stop offset="0.01" stop-color="#B060F4"/>
<stop offset="1" stop-color="#FFEADB"/>
</linearGradient>
<linearGradient id="paint30_linear_2_4506" x1="272.337" y1="87.3134" x2="286.796" y2="63.5883" gradientUnits="userSpaceOnUse">
<stop offset="0.01" stop-color="#AA454F"/>
<stop offset="1" stop-color="#D98638"/>
</linearGradient>
<linearGradient id="paint31_linear_2_4506" x1="243.61" y1="162.069" x2="306.762" y2="28.9639" gradientUnits="userSpaceOnUse">
<stop stop-color="#D1BDE5"/>
<stop offset="1" stop-color="white"/>
</linearGradient>
<radialGradient id="paint32_radial_2_4506" cx="0" cy="0" r="1" gradientUnits="userSpaceOnUse" gradientTransform="translate(312.814 90.8406) rotate(25.3824) scale(68.9771 68.9771)">
<stop stop-color="#0F183B"/>
<stop offset="1" stop-color="#00E7FF"/>
</radialGradient>
<radialGradient id="paint33_radial_2_4506" cx="0" cy="0" r="1" gradientUnits="userSpaceOnUse" gradientTransform="translate(315.971 81.4481) rotate(25.3824) scale(78.5642 78.5643)">
<stop/>
<stop offset="0.27" stop-color="#000002"/>
<stop offset="0.41" stop-color="#00020A"/>
<stop offset="0.52" stop-color="#000517"/>
<stop offset="0.61" stop-color="#00092A"/>
<stop offset="0.69" stop-color="#000E43"/>
<stop offset="0.77" stop-color="#001561"/>
<stop offset="0.84" stop-color="#001C85"/>
<stop offset="0.9" stop-color="#0025AF"/>
<stop offset="0.96" stop-color="#002FDD"/>
<stop offset="1" stop-color="#0036FF"/>
</radialGradient>
<linearGradient id="paint34_linear_2_4506" x1="190.738" y1="88.8129" x2="326.441" y2="153.199" gradientUnits="userSpaceOnUse">
<stop stop-color="white"/>
<stop offset="1" stop-color="#9579A7"/>
</linearGradient>
<linearGradient id="paint35_linear_2_4506" x1="207.669" y1="136.527" x2="241.173" y2="65.912" gradientUnits="userSpaceOnUse">
<stop stop-color="#D1BDE5"/>
<stop offset="1" stop-color="#F4DBEE"/>
</linearGradient>
<linearGradient id="paint36_linear_2_4506" x1="293.698" y1="75.0972" x2="300.581" y2="160.295" gradientUnits="userSpaceOnUse">
<stop stop-color="#36388A"/>
<stop offset="1"/>
</linearGradient>
<radialGradient id="paint37_radial_2_4506" cx="0" cy="0" r="1" gradientUnits="userSpaceOnUse" gradientTransform="translate(268.535 102.66) rotate(4.66029) scale(18.3115 8.21117)">
<stop stop-color="#003CEE"/>
<stop offset="0.06" stop-color="#0036D6"/>
<stop offset="0.2" stop-color="#00289E"/>
<stop offset="0.34" stop-color="#001C6D"/>
<stop offset="0.48" stop-color="#001246"/>
<stop offset="0.62" stop-color="#000A27"/>
<stop offset="0.75" stop-color="#000412"/>
<stop offset="0.88" stop-color="#000104"/>
<stop offset="1"/>
</radialGradient>
<radialGradient id="paint38_radial_2_4506" cx="0" cy="0" r="1" gradientUnits="userSpaceOnUse" gradientTransform="translate(335.661 123.409) rotate(101.661) scale(39.5956 8.24433)">
<stop stop-color="#003CEE"/>
<stop offset="0.06" stop-color="#0036D6"/>
<stop offset="0.2" stop-color="#00289E"/>
<stop offset="0.34" stop-color="#001C6D"/>
<stop offset="0.48" stop-color="#001246"/>
<stop offset="0.62" stop-color="#000A27"/>
<stop offset="0.75" stop-color="#000412"/>
<stop offset="0.88" stop-color="#000104"/>
<stop offset="1"/>
</radialGradient>
<linearGradient id="paint39_linear_2_4506" x1="421.476" y1="172.374" x2="430.036" y2="154.333" gradientUnits="userSpaceOnUse">
<stop stop-color="white"/>
<stop offset="1" stop-color="#9579A7"/>
</linearGradient>
<linearGradient id="paint40_linear_2_4506" x1="404.06" y1="160.788" x2="419.731" y2="127.759" gradientUnits="userSpaceOnUse">
<stop stop-color="white"/>
<stop offset="1" stop-color="#9579A7"/>
</linearGradient>
<radialGradient id="paint41_radial_2_4506" cx="0" cy="0" r="1" gradientUnits="userSpaceOnUse" gradientTransform="translate(359.81 249.847) rotate(-166.712) scale(239.733 239.733)">
<stop stop-color="#00D5FF"/>
<stop offset="0.18" stop-color="#29DCFF"/>
<stop offset="0.59" stop-color="#90EDFF"/>
<stop offset="1" stop-color="white"/>
</radialGradient>
</defs>
</svg>
