<svg width="749" height="1079" viewBox="0 0 749 1079" fill="none" xmlns="http://www.w3.org/2000/svg">
<path d="M261.95 1062.75V1078.01H268.49V1062.75H261.95ZM261.95 1032.23V1047.49H268.49V1032.23H261.95ZM261.95 1001.71V1016.97H268.49V1001.71H261.95ZM263.563 970.711C263.498 971.016 263.454 971.321 263.411 971.626C262.539 976.488 262.059 981.436 261.972 986.407L268.49 986.516C268.577 982.635 268.904 978.755 269.493 974.94C269.645 973.937 269.798 972.912 269.994 971.91L263.563 970.711ZM274.42 941.193C272.261 944.987 270.321 948.954 268.708 953.031C268.359 953.837 268.054 954.644 267.749 955.472L273.896 957.739C274.005 957.434 274.136 957.107 274.267 956.802C275.858 952.551 277.842 948.387 280.109 944.442L274.42 941.193ZM298.53 921.617L294.388 916.864C292.644 918.39 290.944 919.982 289.331 921.639C288.088 922.881 286.867 924.168 285.712 925.497C284.927 926.391 284.142 927.285 283.401 928.201L288.437 932.343C288.568 932.19 288.699 932.037 288.829 931.885C290.312 930.097 291.881 928.375 293.495 926.718C293.625 926.587 293.756 926.435 293.887 926.326C294.454 925.737 295.021 925.17 295.609 924.625C295.827 924.386 296.067 924.189 296.285 923.971C296.459 923.819 296.612 923.666 296.786 923.514C296.917 923.383 297.048 923.274 297.179 923.165C297.353 922.99 297.528 922.816 297.724 922.663C297.985 922.424 298.247 922.184 298.509 921.944C298.574 921.9 298.618 921.835 298.683 921.791L298.53 921.617ZM321.181 900.406C318.913 901.321 316.69 902.324 314.488 903.414C313.027 904.133 311.61 904.896 310.193 905.703C309.147 906.27 308.122 906.88 307.098 907.512L310.237 912.635L310.52 913.093C312.046 912.156 313.594 911.262 315.186 910.434C317.932 908.951 320.766 907.621 323.644 906.466L321.181 900.406ZM351.919 893.669C346.665 893.931 341.389 894.629 336.288 895.74L337.683 902.128C342.436 901.081 347.341 900.449 352.246 900.209L351.919 893.669ZM611.513 893.56V900.1H626.773V893.56H611.513ZM580.993 893.56V900.1H596.253V893.56H580.993ZM550.473 893.56V900.1H565.733V893.56H550.473ZM519.953 893.56V900.1H535.213V893.56H519.953ZM489.433 893.56V900.1H504.693V893.56H489.433ZM458.913 893.56V900.1H474.173V893.56H458.913ZM428.393 893.56V900.1H443.653V893.56H428.393ZM397.873 893.56V900.1H413.133V893.56H397.873ZM367.353 893.56V900.1H382.613V893.56H367.353ZM656.181 890.072C651.385 891.293 646.502 892.187 641.597 892.776L642.36 899.272C647.548 898.662 652.737 897.702 657.773 896.416L656.181 890.072ZM683.606 879.107C679.311 881.527 674.82 883.663 670.264 885.494L672.684 891.577C677.523 889.636 682.276 887.369 686.81 884.819L683.606 879.107ZM707.28 861.405C703.771 864.828 699.977 868.076 696.032 871.019L699.956 876.273C704.119 873.134 708.131 869.711 711.858 866.071L707.28 861.405ZM725.614 838.167C723.085 842.396 720.273 846.516 717.221 850.375L722.344 854.429C725.571 850.331 728.557 845.993 731.239 841.524L725.614 838.167ZM737.299 811.004C735.969 815.756 734.312 820.443 732.35 824.978L738.367 827.55C740.416 822.776 742.182 817.805 743.599 812.77L737.299 811.004ZM741.528 781.726C741.463 786.675 741.07 791.645 740.373 796.507L746.847 797.444C747.589 792.299 748.003 787.046 748.068 781.814L741.528 781.726ZM744.449 750.749L738.106 752.362C739.305 757.114 740.198 762.019 740.787 766.924L747.283 766.183C746.673 760.973 745.714 755.806 744.449 750.749ZM732.874 721.711L727.162 724.894C729.582 729.21 731.718 733.701 733.528 738.279L739.61 735.859C737.691 731.02 735.424 726.267 732.874 721.711ZM714.169 696.641L709.482 701.197C712.927 704.729 716.153 708.522 719.096 712.489L724.35 708.566C721.232 704.402 717.81 700.391 714.169 696.641ZM689.644 677.239L686.287 682.842C690.516 685.37 694.615 688.204 698.495 691.256L702.55 686.133C698.451 682.907 694.113 679.899 689.644 677.239ZM660.912 664.813L659.124 671.113C663.877 672.465 668.585 674.122 673.098 676.084L675.692 670.089C670.918 668.018 665.948 666.252 660.912 664.813ZM629.978 660.322L629.869 666.862C634.817 666.928 639.788 667.32 644.649 668.018L645.586 661.543C640.442 660.802 635.188 660.388 629.978 660.322ZM599.392 660.3V666.84H614.652V660.3H599.392ZM568.872 660.3V666.84H584.132V660.3H568.872ZM538.352 660.3V666.84H553.612V660.3H538.352ZM507.832 660.3V666.84H523.092V660.3H507.832ZM477.312 660.3V666.84H492.572V660.3H477.312ZM446.792 660.3V666.84H462.052V660.3H446.792ZM416.272 660.3V666.84H431.532V660.3H416.272ZM385.752 660.3V666.84H401.012V660.3H385.752ZM355.232 660.3V666.84H370.492V660.3H355.232ZM324.712 660.3V666.84H339.972V660.3H324.712ZM294.192 660.3V666.84H309.452V660.3H294.192ZM263.672 660.3V666.84H278.932V660.3H263.672ZM233.152 660.3V666.84H248.412V660.3H233.152ZM202.632 660.3V666.84H217.892V660.3H202.632ZM172.112 660.3V666.84H187.372V660.3H172.112ZM141.592 660.3V666.84H156.852V660.3H141.592ZM119.814 660.3C117.961 660.3 116.086 660.235 114.233 660.148C113.797 660.126 113.361 660.104 112.925 660.061C112.402 660.039 111.879 659.995 111.356 659.952L110.898 665.772L110.832 666.47C111.203 666.492 111.574 666.535 111.966 666.535C114.713 666.731 117.481 666.84 120.25 666.84H126.332V660.3H119.814ZM90.2969 656.289C89.7955 656.158 89.2941 656.028 88.7927 655.875C88.0297 655.657 87.2885 655.439 86.5473 655.199C86.1331 655.09 85.7189 654.959 85.3265 654.829C84.3455 654.502 83.3863 654.174 82.4271 653.848L80.2471 659.995C81.2063 660.344 82.1655 660.671 83.1465 660.976C83.5389 661.107 83.9531 661.238 84.3455 661.369C86.6781 662.11 89.0543 662.764 91.4523 663.352C91.9537 663.483 92.4551 663.614 92.9565 663.701C93.7413 663.897 94.5479 664.072 95.3327 664.246L96.6843 657.837C94.5479 657.401 92.4115 656.878 90.2969 656.289ZM59.9513 642.926C59.7769 642.839 59.6025 642.73 59.4281 642.621C58.2945 641.901 57.1827 641.16 56.0927 640.397L52.3867 645.803C53.9999 646.915 55.6349 647.983 57.3135 648.986C57.4443 649.095 57.5751 649.182 57.7277 649.248C60.3655 650.883 63.0905 652.409 65.8373 653.804L68.8021 647.983C65.7937 646.457 62.8289 644.779 59.9513 642.926ZM44.3425 631.132C40.7237 627.862 37.2793 624.33 34.0965 620.624L29.1261 624.875C32.5269 628.843 36.1893 632.614 40.0697 636.102L44.1027 631.612C44.1027 631.59 44.1245 631.59 44.1245 631.59L44.4515 631.241C44.4079 631.197 44.3861 631.176 44.3425 631.132ZM17.9427 595.838L12.0567 598.672C14.3021 603.359 16.8745 607.959 19.7303 612.34L25.2021 608.765C22.5207 604.623 20.0791 600.285 17.9427 595.838ZM8.78667 567.716L2.35567 568.915C3.31487 574.038 4.60107 579.161 6.21427 584.109L12.4273 582.082C10.9013 577.395 9.68047 572.577 8.78667 567.716ZM7.21707 538.199L0.698867 537.697C0.459067 540.749 0.350067 543.845 0.350067 546.94C0.350067 549.077 0.393667 551.235 0.524467 553.35L7.04267 553.001C6.93367 550.995 6.89007 548.968 6.89007 546.94C6.89007 544.019 6.99907 541.076 7.21707 538.199ZM7.12987 507.09C5.40767 511.995 3.96887 517.074 2.90067 522.176L9.30987 523.527C10.3127 518.709 11.6643 513.892 13.2993 509.248L7.12987 507.09ZM21.2999 479.208C18.3569 483.502 15.6537 488.037 13.2993 492.68L19.1199 495.645C21.3653 491.241 23.8941 486.969 26.6845 482.892L21.2999 479.208ZM42.1843 455.925C38.2167 459.326 34.4671 463.01 30.9791 466.891L35.8405 471.251C39.1323 467.588 42.7075 464.1 46.4353 460.896L42.1843 455.925ZM68.3661 438.812C63.6791 441.058 59.0793 443.652 54.7193 446.508L58.2945 451.98C62.4147 449.276 66.7747 446.835 71.2001 444.698L68.3661 438.812ZM98.1013 429.068C92.9783 430.027 87.8771 431.335 82.9285 432.97L84.9559 439.183C89.6429 437.635 94.4607 436.414 99.3221 435.499L98.1013 429.068ZM120.25 427.04C118.048 427.04 115.846 427.106 113.666 427.215L114.015 433.755C116.064 433.646 118.157 433.58 120.25 433.58H129.101V427.04H120.25ZM602.161 427.04V433.58H617.421V427.04H602.161ZM571.641 427.04V433.58H586.901V427.04H571.641ZM541.121 427.04V433.58H556.381V427.04H541.121ZM510.601 427.04V433.58H525.861V427.04H510.601ZM480.081 427.04V433.58H495.341V427.04H480.081ZM449.561 427.04V433.58H464.821V427.04H449.561ZM419.041 427.04V433.58H434.301V427.04H419.041ZM388.521 427.04V433.58H403.781V427.04H388.521ZM358.001 427.04V433.58H373.261V427.04H358.001ZM327.481 427.04V433.58H342.741V427.04H327.481ZM296.961 427.04V433.58H312.221V427.04H296.961ZM266.441 427.04V433.58H281.701V427.04H266.441ZM235.921 427.04V433.58H251.181V427.04H235.921ZM205.401 427.04V433.58H220.661V427.04H205.401ZM174.881 427.04V433.58H190.141V427.04H174.881ZM144.361 427.04V433.58H159.621V427.04H144.361ZM647.287 425.427C642.447 426.256 637.499 426.779 632.55 426.953L632.812 433.493C638.022 433.297 643.276 432.752 648.399 431.88L647.287 425.427ZM675.54 416.707C671.071 418.756 666.405 420.544 661.718 422.005L663.637 428.239C668.607 426.713 673.534 424.817 678.286 422.637L675.54 416.707ZM700.544 400.946C696.751 404.085 692.718 407.028 688.554 409.644L692.042 415.181C696.446 412.391 700.719 409.295 704.73 405.982L700.544 400.946ZM720.666 379.255C717.81 383.266 714.671 387.146 711.313 390.743L716.109 395.191C719.663 391.376 722.976 387.277 726.007 383.048L720.666 379.255ZM734.509 353.117C732.786 357.716 730.737 362.273 728.448 366.632L734.225 369.685C736.667 365.085 738.825 360.267 740.634 355.384L734.509 353.117ZM741.049 324.275C740.591 329.18 739.806 334.107 738.738 338.903L745.103 340.342C746.259 335.284 747.087 330.074 747.567 324.864L741.049 324.275ZM746.411 293.624L739.959 294.714C740.787 299.554 741.288 304.503 741.463 309.451L748.003 309.211C747.807 303.979 747.283 298.747 746.411 293.624ZM737.212 263.715L731.26 266.44C733.31 270.909 735.097 275.574 736.558 280.283L742.793 278.364C741.267 273.372 739.392 268.445 737.212 263.715ZM720.578 237.25L715.543 241.435C718.682 245.228 721.603 249.261 724.219 253.425L729.756 249.937C726.988 245.534 723.892 241.261 720.578 237.25ZM697.667 215.951L693.873 221.27C697.885 224.126 701.743 227.287 705.362 230.644L709.809 225.848C705.994 222.317 701.918 218.981 697.667 215.951ZM670.024 201.28L667.735 207.405C672.357 209.128 676.913 211.177 681.273 213.488L684.325 207.711C679.725 205.269 674.907 203.111 670.024 201.28ZM639.526 194.304L638.916 200.822C643.821 201.28 648.747 202.064 653.543 203.154L655.004 196.789C649.925 195.633 644.714 194.805 639.526 194.304ZM608.723 193.78V200.32H623.983V193.78H608.723ZM578.203 193.78V200.32H593.463V193.78H578.203ZM547.683 193.78V200.32H562.943V193.78H547.683ZM517.163 193.78V200.32H532.423V193.78H517.163ZM486.643 193.78V200.32H501.903V193.78H486.643ZM456.123 193.78V200.32H471.383V193.78H456.123ZM425.603 193.78V200.32H440.863V193.78H425.603ZM395.083 193.78V200.32H410.343V193.78H395.083ZM364.563 193.78V200.32H379.823V193.78H364.563ZM334.043 193.78V200.32H349.303V193.78H334.043ZM303.523 193.78V200.32H318.783V193.78H303.523ZM273.003 193.78V200.32H288.263V193.78H273.003ZM242.483 193.78V200.32H257.743V193.78H242.483ZM211.963 193.78V200.32H227.223V193.78H211.963ZM181.443 193.78V200.32H196.703V193.78H181.443ZM150.923 193.78V200.32H166.183V193.78H150.923ZM120.403 193.78V200.32H135.663V193.78H120.403ZM94.9839 193.78C93.3271 193.78 91.6921 193.737 90.0571 193.65L89.7083 200.168C91.4523 200.277 93.2181 200.32 94.9839 200.32H105.143V193.78H94.9839ZM61.4991 187.197L59.0139 193.235C63.8753 195.241 68.9329 196.854 74.0777 198.01L75.5165 191.622C70.7423 190.554 66.0335 189.05 61.4991 187.197ZM36.6689 171.719L32.3307 176.602C36.2765 180.09 40.5275 183.273 44.9747 186.041L48.4409 180.504C44.2989 177.91 40.3313 174.967 36.6689 171.719ZM18.2261 148.96L12.5363 152.164C15.1087 156.742 18.0953 161.124 21.4089 165.222L26.4883 161.102C23.4145 157.287 20.6241 153.211 18.2261 148.96ZM8.28527 121.404L1.85427 122.56C2.76987 127.748 4.16507 132.871 5.93087 137.82L12.1003 135.596C10.4217 130.996 9.15727 126.222 8.28527 121.404ZM0.350067 91.5601V106.864L6.89007 106.777V91.5601H0.350067ZM0.350067 61.0401V76.3001H6.89007V61.0401H0.350067ZM0.350067 30.5201V45.7801H6.89007V30.5201H0.350067ZM0.350067 0.000114441V15.2601H6.89007V0.000114441H0.350067Z" fill="#6A6979"/>
</svg>
