<svg width="101" height="39" viewBox="0 0 101 39" fill="none" xmlns="http://www.w3.org/2000/svg">
<path d="M68.8753 19.4712C68.8753 26.2737 74.3898 31.7882 81.1923 31.7882C87.9948 31.7882 93.5093 26.2737 93.5093 19.4712C93.5093 12.6687 87.9948 7.15417 81.1923 7.15417C74.3898 7.15417 68.8753 12.6687 68.8753 19.4712Z" fill="url(#paint0_linear_2_13556)"/>
<path d="M2.40707 19.4711C2.40707 19.5365 2.40708 19.6237 2.38528 19.6891C2.36348 19.7545 2.34168 19.8417 2.31988 19.9071C2.29808 19.9725 2.25447 20.0379 2.21087 20.1033C2.16727 20.1687 2.12368 20.2123 2.08008 20.2777C2.03648 20.3213 1.97107 20.3649 1.90567 20.4085C1.84027 20.4521 1.77487 20.4739 1.70947 20.5175C1.64407 20.5393 1.57867 20.5611 1.51327 20.5829C1.44787 20.6047 1.36068 20.6047 1.29528 20.6047C0.990078 20.6047 0.706676 20.4957 0.510476 20.2777C0.0962762 19.8635 0.0962763 19.1223 0.510476 18.7081C0.728476 18.4901 1.01188 18.3811 1.29528 18.3811C1.60048 18.3811 1.88388 18.4901 2.08008 18.7081C2.14548 18.7517 2.18907 18.8171 2.21087 18.8825C2.25447 18.9479 2.29808 19.0133 2.31988 19.0787C2.34168 19.1441 2.36348 19.2095 2.38528 19.2749C2.38528 19.3403 2.40707 19.4057 2.40707 19.4711Z" fill="white"/>
<path d="M56.3184 19.4711C56.3184 18.8607 55.817 18.3593 55.2066 18.3593C54.5962 18.3593 54.0948 18.8607 54.0948 19.4711C54.0948 20.0815 54.5962 20.5829 55.2066 20.5829C55.817 20.5829 56.3184 20.0815 56.3184 19.4711ZM51.8276 19.4711C51.8276 18.8607 51.3262 18.3593 50.7158 18.3593C50.1054 18.3593 49.604 18.8607 49.604 19.4711C49.604 20.0815 50.1054 20.5829 50.7158 20.5829C51.3262 20.5829 51.8276 20.0815 51.8276 19.4711ZM47.3368 19.4711C47.3368 18.8607 46.8354 18.3593 46.225 18.3593C45.5928 18.3593 45.1132 18.8607 45.1132 19.4711C45.1132 20.0815 45.5928 20.5829 46.225 20.5829C46.8354 20.5829 47.3368 20.0815 47.3368 19.4711ZM42.846 19.4711C42.846 18.8607 42.3446 18.3593 41.7342 18.3593C41.102 18.3593 40.6224 18.8607 40.6224 19.4711C40.6224 20.0815 41.102 20.5829 41.7342 20.5829C42.3446 20.5829 42.846 20.0815 42.846 19.4711ZM38.3552 19.4711C38.3552 18.8607 37.8538 18.3593 37.2216 18.3593C36.6112 18.3593 36.1098 18.8607 36.1098 19.4711C36.1098 20.0815 36.6112 20.5829 37.2216 20.5829C37.8538 20.5829 38.3552 20.0815 38.3552 19.4711ZM33.8426 19.4711C33.8426 18.8607 33.363 18.3593 32.7308 18.3593C32.1204 18.3593 31.619 18.8607 31.619 19.4711C31.619 20.0815 32.1204 20.5829 32.7308 20.5829C33.363 20.5829 33.8426 20.0815 33.8426 19.4711ZM29.3518 19.4711C29.3518 18.8607 28.8722 18.3593 28.24 18.3593C27.6296 18.3593 27.1282 18.8607 27.1282 19.4711C27.1282 20.0815 27.6296 20.5829 28.24 20.5829C28.8722 20.5829 29.3518 20.0815 29.3518 19.4711ZM24.861 19.4711C24.861 18.8607 24.3596 18.3593 23.7492 18.3593C23.1388 18.3593 22.6374 18.8607 22.6374 19.4711C22.6374 20.0815 23.1388 20.5829 23.7492 20.5829C24.3596 20.5829 24.861 20.0815 24.861 19.4711ZM20.3702 19.4711C20.3702 18.8607 19.8688 18.3593 19.2584 18.3593C18.648 18.3593 18.1466 18.8607 18.1466 19.4711C18.1466 20.0815 18.648 20.5829 19.2584 20.5829C19.8688 20.5829 20.3702 20.0815 20.3702 19.4711ZM15.8794 19.4711C15.8794 18.8607 15.378 18.3593 14.7676 18.3593C14.1572 18.3593 13.6558 18.8607 13.6558 19.4711C13.6558 20.0815 14.1572 20.5829 14.7676 20.5829C15.378 20.5829 15.8794 20.0815 15.8794 19.4711ZM11.3886 19.4711C11.3886 18.8607 10.8872 18.3593 10.2768 18.3593C9.6664 18.3593 9.165 18.8607 9.165 19.4711C9.165 20.0815 9.6664 20.5829 10.2768 20.5829C10.8872 20.5829 11.3886 20.0815 11.3886 19.4711ZM6.8978 19.4711C6.8978 18.8607 6.39641 18.3593 5.78601 18.3593C5.15381 18.3593 4.6524 18.8607 4.6524 19.4711C4.6524 20.0815 5.15381 20.5829 5.78601 20.5829C6.39641 20.5829 6.8978 20.0815 6.8978 19.4711Z" fill="white"/>
<path d="M60.8094 19.471C60.8094 19.6236 60.7876 19.7544 60.7222 19.907C60.6568 20.0378 60.5914 20.1686 60.4824 20.2776C60.2862 20.4738 59.981 20.6046 59.6976 20.6046C59.6322 20.6046 59.545 20.6046 59.4796 20.5828C59.4142 20.561 59.3488 20.5392 59.2616 20.5174C59.1962 20.4956 59.1308 20.452 59.0654 20.4084C59 20.3648 58.9564 20.3212 58.891 20.2776C58.6294 20.016 58.5204 19.6236 58.5858 19.2748C58.5858 19.2094 58.6294 19.144 58.6512 19.0786C58.673 19.0132 58.7166 18.9478 58.7602 18.8824C58.8038 18.817 58.8474 18.7734 58.891 18.708C58.9346 18.6426 59 18.599 59.0654 18.5772C59.1308 18.5336 59.1962 18.49 59.2616 18.4682C59.327 18.4464 59.3924 18.4246 59.4796 18.4028C59.545 18.381 59.6322 18.381 59.6976 18.381C60.0028 18.381 60.2862 18.49 60.4824 18.708C60.5478 18.7516 60.5914 18.817 60.6132 18.8824C60.6568 18.9478 60.7004 19.0132 60.7222 19.0786C60.744 19.144 60.7658 19.2094 60.7876 19.2748C60.8094 19.3402 60.8094 19.4056 60.8094 19.471Z" fill="white"/>
<path d="M100.442 17.5963L100.442 17.4873C100.376 16.8987 99.8751 16.4845 99.2865 16.4845L99.1993 16.4845C98.6325 16.5499 98.2183 17.0295 98.2183 17.5745L98.2183 17.7053C98.2837 18.3375 98.8287 18.7735 99.4391 18.7081C100.006 18.6427 100.442 18.1631 100.442 17.5963ZM100.355 22.2179L100.355 22.0435C100.355 21.4985 99.9405 21.0189 99.3955 20.9535C99.3301 20.9535 99.2865 20.9317 99.2429 20.9317C98.6979 20.9317 98.2183 21.3459 98.1311 21.8909C98.1311 21.9345 98.1093 21.9999 98.1093 22.0435C98.1093 22.5885 98.5235 23.0681 99.0903 23.1553C99.7007 23.2425 100.267 22.8065 100.355 22.2179ZM98.7197 14.3045C99.1775 14.1519 99.4391 13.7159 99.4391 13.2581C99.4391 13.1491 99.4173 13.0183 99.3737 12.8875C99.2211 12.4297 98.7851 12.1463 98.3273 12.1463C98.2183 12.1463 98.0875 12.1681 97.9567 12.2117C97.4989 12.3861 97.2155 12.8221 97.2155 13.2799C97.2155 13.3889 97.2373 13.5197 97.2809 13.6505C97.4989 14.2173 98.1311 14.5225 98.7197 14.3045ZM99.1121 26.7741C99.1775 26.6215 99.1993 26.4907 99.1993 26.3381C99.1993 25.9021 98.9377 25.4879 98.5017 25.3135C98.3709 25.2481 98.2183 25.2263 98.0875 25.2263C97.6515 25.2263 97.2373 25.4879 97.0629 25.9239C96.9975 26.0765 96.9757 26.2073 96.9757 26.3599C96.9757 26.7959 97.2373 27.2101 97.6515 27.3845C98.2401 27.6025 98.8723 27.3409 99.1121 26.7741ZM96.9321 10.2279C97.2591 10.0099 97.4335 9.66113 97.4335 9.31233C97.4335 9.09433 97.3681 8.87632 97.2373 8.68012C97.0411 8.37492 96.6705 8.20052 96.3217 8.20052C96.1037 8.20052 95.8857 8.24413 95.6895 8.37493C95.3843 8.59293 95.2099 8.94172 95.2099 9.29052C95.2099 9.50852 95.2753 9.72652 95.4061 9.92272C95.7331 10.4459 96.4307 10.5767 96.9321 10.2279ZM96.8231 30.8943C96.9539 30.6981 97.0193 30.4583 97.0193 30.2403C97.0193 29.8915 96.8667 29.5427 96.5833 29.3247C96.3871 29.1721 96.1691 29.1067 95.9293 29.1067C95.5805 29.1067 95.2317 29.2811 95.0137 29.5645C94.8611 29.7607 94.7957 30.0005 94.7957 30.2185C94.7957 30.5673 94.9483 30.9161 95.2535 31.1341C95.7549 31.4829 96.4525 31.3739 96.8231 30.8943ZM94.2289 6.69632C94.4251 6.47832 94.5123 6.21672 94.5123 5.95512C94.5123 5.64992 94.4033 5.34471 94.1635 5.12671C93.9455 4.93051 93.6621 4.82152 93.4005 4.82152C93.0953 4.82152 92.7901 4.95233 92.5721 5.19213C92.3759 5.41013 92.2887 5.67172 92.2887 5.93332C92.2887 6.26032 92.4195 6.56552 92.6593 6.78352C93.1171 7.19772 93.8147 7.15412 94.2289 6.69632ZM93.5749 34.3169C93.8365 34.1207 93.9891 33.7937 93.9891 33.4667C93.9891 33.2269 93.9019 32.9653 93.7275 32.7473C93.5095 32.4857 93.1825 32.3549 92.8773 32.3549C92.6157 32.3549 92.3541 32.4421 92.1579 32.6165C91.8963 32.8345 91.7437 33.1615 91.7437 33.4667C91.7437 33.7283 91.8309 33.9681 92.0053 34.1861C92.4195 34.6657 93.1171 34.7311 93.5749 34.3169ZM90.7409 3.90592C90.8281 3.75332 90.8717 3.55712 90.8717 3.38272C90.8717 2.99032 90.6537 2.59791 90.2831 2.40171C90.1305 2.31451 89.9343 2.27092 89.7599 2.27092C89.3675 2.27092 88.9751 2.48893 88.7789 2.85953C88.6917 3.03393 88.6481 3.20832 88.6481 3.38272C88.6481 3.79692 88.8661 4.16752 89.2367 4.38552C89.7817 4.66892 90.4575 4.45092 90.7409 3.90592ZM89.6291 36.8893C90.0215 36.6931 90.2613 36.3007 90.2613 35.8865C90.2613 35.7121 90.2177 35.5595 90.1305 35.4069C89.9343 34.9927 89.5419 34.7747 89.1277 34.7747C88.9751 34.7747 88.8007 34.8183 88.6481 34.8837C88.2557 35.0799 88.0159 35.4723 88.0159 35.8865C88.0159 36.0609 88.0595 36.2135 88.1249 36.3661C88.4083 36.9329 89.0623 37.1509 89.6291 36.8893ZM86.6861 2.05292C86.7079 1.96572 86.7297 1.87852 86.7297 1.79132C86.7297 1.28992 86.3809 0.832116 85.8795 0.701316C85.7923 0.679516 85.7051 0.679528 85.6397 0.679528C85.1383 0.679528 84.6587 1.00653 84.5279 1.52973C84.5061 1.61693 84.4843 1.70412 84.4843 1.79132C84.4843 2.29272 84.8331 2.75052 85.3563 2.88132C85.9449 3.03392 86.5335 2.66332 86.6861 2.05292ZM85.1601 38.4153C85.6833 38.3063 86.0321 37.8267 86.0321 37.3253C86.0321 37.2381 86.0321 37.1727 86.0103 37.0855C85.9231 36.5841 85.4435 36.2135 84.9421 36.2135C84.8549 36.2135 84.7895 36.2135 84.7023 36.2353C84.1791 36.3225 83.8085 36.7803 83.8085 37.3035C83.8085 37.3907 83.8085 37.4561 83.8303 37.5433C83.9611 38.1537 84.5497 38.5461 85.1601 38.4153ZM82.3043 1.24632C82.3043 0.635916 81.8247 0.134528 81.1925 0.134528C80.5821 0.134528 80.0807 0.635916 80.0807 1.24632C80.0807 1.87852 80.5821 2.35812 81.1925 2.35812C81.8247 2.35812 82.3043 1.87852 82.3043 1.24632ZM81.6067 37.7177L81.6067 37.6959C81.6067 37.0855 81.1271 36.6059 80.5385 36.5841L80.4731 36.5841C79.8845 36.5841 79.4049 37.0637 79.3831 37.6523C79.3831 37.6741 79.3831 37.6741 79.3831 37.6959C79.3831 38.2845 79.8627 38.7859 80.4513 38.8077C81.0617 38.8295 81.5849 38.3499 81.6067 37.7177ZM79.2959 1.50792C79.2959 1.44252 79.2741 1.37711 79.2741 1.31171C79.1651 0.766714 78.6855 0.374329 78.1405 0.374329C78.0969 0.374329 78.0533 0.396117 77.9879 0.396117C77.4429 0.483317 77.0505 0.962917 77.0505 1.48612C77.0505 1.55152 77.0505 1.61693 77.0723 1.68233C77.1813 2.29273 77.7481 2.70692 78.3585 2.59792C78.9035 2.51072 79.2959 2.05292 79.2959 1.50792ZM77.1813 37.2817C77.2031 37.1945 77.2249 37.0855 77.2249 36.9765C77.2249 36.4969 76.8979 36.0609 76.4183 35.9083C76.3093 35.8865 76.2003 35.8647 76.1131 35.8647C75.6117 35.8647 75.1757 36.1917 75.0231 36.6713C75.0013 36.7803 74.9795 36.8675 74.9795 36.9765C74.9795 37.4561 75.3065 37.8921 75.7861 38.0447C76.3747 38.2191 77.0069 37.8703 77.1813 37.2817ZM74.3473 3.79693C74.7615 3.60073 75.0231 3.20833 75.0231 2.77233C75.0231 2.61973 74.9795 2.46712 74.9359 2.33632C74.7397 1.92212 74.3255 1.66052 73.8895 1.66052C73.7369 1.66052 73.6061 1.68232 73.4535 1.74772C73.0393 1.94392 72.7777 2.33633 72.7777 2.77233C72.7777 2.92493 72.8213 3.07752 72.8867 3.23012C73.1265 3.77512 73.7805 4.03673 74.3473 3.79693ZM72.9739 35.7775C73.0829 35.6031 73.1265 35.4069 73.1265 35.2107C73.1265 34.8401 72.9303 34.4695 72.5815 34.2515C72.4071 34.1425 72.2109 34.0989 72.0147 34.0989C71.6223 34.0989 71.2517 34.2951 71.0555 34.6657C70.9465 34.8401 70.9029 35.0363 70.9029 35.2107C70.9029 35.6031 71.0991 35.9737 71.4479 36.1917C71.9929 36.4969 72.6687 36.3225 72.9739 35.7775ZM70.7721 5.93332C71.0555 5.69352 71.1863 5.36653 71.1863 5.03953C71.1863 4.79973 71.1209 4.55992 70.9683 4.36372C70.7503 4.08032 70.4233 3.92772 70.0963 3.92772C69.8347 3.92772 69.5949 3.99312 69.3987 4.16752C69.1153 4.38552 68.9627 4.71253 68.9627 5.03953C68.9627 5.27933 69.0499 5.51912 69.2025 5.71532C69.5731 6.21672 70.2707 6.30392 70.7721 5.93332ZM69.2897 33.2923C69.4859 33.0743 69.5949 32.8127 69.5949 32.5293C69.5949 32.2459 69.4859 31.9407 69.2461 31.7227C69.0281 31.5047 68.7665 31.3957 68.4831 31.3957C68.1997 31.3957 67.8945 31.5265 67.6765 31.7445C67.4585 31.9625 67.3495 32.2459 67.3495 32.5075C67.3495 32.8127 67.4803 33.0961 67.6983 33.3141C68.1343 33.7501 68.8537 33.7501 69.2897 33.2923ZM67.7855 8.85453C67.9599 8.65833 68.0253 8.39673 68.0253 8.15693C68.0253 7.82993 67.8945 7.50292 67.6111 7.28492C67.4149 7.13232 67.1533 7.04512 66.9135 7.04512C66.5865 7.04512 66.2595 7.17593 66.0415 7.45933C65.8671 7.67733 65.8017 7.91713 65.8017 8.15693C65.8017 8.50573 65.9325 8.81091 66.2159 9.02891C66.6955 9.42131 67.4149 9.33413 67.7855 8.85453ZM66.2813 30.0005C66.6301 29.8043 66.8045 29.4337 66.8045 29.0631C66.8045 28.8451 66.7609 28.6489 66.6519 28.4745C66.4339 28.1257 66.0633 27.9295 65.6927 27.9295C65.4747 27.9295 65.2785 27.9949 65.1041 28.1039C64.7771 28.3219 64.5809 28.6707 64.5809 29.0631C64.5809 29.2593 64.6463 29.4555 64.7553 29.6517C65.0605 30.1749 65.7581 30.3275 66.2813 30.0005ZM65.6055 12.4297C65.6709 12.2771 65.7145 12.1027 65.7145 11.9719C65.7145 11.5359 65.4747 11.1217 65.0605 10.9473C64.9079 10.8819 64.7335 10.8383 64.5809 10.8383C64.1667 10.8383 63.7743 11.0781 63.5781 11.4923C63.5127 11.6449 63.4691 11.7975 63.4691 11.9501C63.4691 12.3861 63.7307 12.7785 64.1231 12.9747C64.6899 13.2363 65.3439 12.9747 65.6055 12.4297ZM64.1667 26.0765C64.6463 25.9239 64.9515 25.4879 64.9515 25.0083C64.9515 24.8993 64.9297 24.7903 64.9079 24.6813C64.7553 24.2017 64.3193 23.8965 63.8397 23.8965C63.7307 23.8965 63.5999 23.9183 63.4909 23.9619C63.0113 24.0927 62.7061 24.5287 62.7061 25.0083C62.7061 25.1173 62.7279 25.2481 62.7715 25.3571C62.9677 25.9457 63.5781 26.2727 64.1667 26.0765ZM64.3629 16.3973C64.3847 16.3319 64.3847 16.2665 64.3847 16.2011C64.3847 15.6779 64.0141 15.1983 63.4691 15.1111C63.4037 15.0893 63.3383 15.0893 63.2729 15.0893C62.7279 15.0893 62.2701 15.4599 62.1611 16.0049C62.1393 16.0703 62.1393 16.1357 62.1393 16.2011C62.1393 16.7243 62.5317 17.2039 63.0767 17.3129C63.6871 17.4219 64.2539 17.0077 64.3629 16.3973ZM64.1231 20.6483L64.1231 20.5829C64.0795 19.9943 63.5999 19.5365 63.0331 19.5365L62.9459 19.5365C62.3573 19.5801 61.8995 20.0597 61.8995 20.6265L61.8995 20.7137C61.9431 21.3241 62.4663 21.8037 63.0767 21.7601C63.6871 21.7165 64.1231 21.2369 64.1231 20.6483Z" fill="white"/>
<defs>
<linearGradient id="paint0_linear_2_13556" x1="93.1751" y1="19.4773" x2="65.4091" y2="19.4773" gradientUnits="userSpaceOnUse">
<stop stop-color="#2063C6"/>
<stop offset="1" stop-color="#5096D1"/>
</linearGradient>
</defs>
</svg>
