<svg width="781" height="1090" viewBox="0 0 781 1090" fill="none" xmlns="http://www.w3.org/2000/svg">
<path d="M780.44 780.2C780.44 855.323 719.313 916.45 644.19 916.45H372.584C367.047 916.45 361.64 917.083 356.452 918.26C355.58 918.478 354.708 918.696 353.858 918.936C340.015 922.663 327.828 930.446 318.629 940.932C317.997 941.673 317.386 942.392 316.776 943.155C316.58 943.395 316.383 943.635 316.209 943.875C315.62 944.616 315.054 945.357 314.53 946.098C310.933 951.025 307.947 956.453 305.723 962.209C304.873 964.345 304.154 966.525 303.521 968.749C302.497 972.389 301.734 976.139 301.298 979.997C300.993 982.679 300.84 985.426 300.84 988.194V1090H261.6V988.194C261.6 978.341 262.886 968.77 265.328 959.68C266.679 954.513 268.423 949.477 270.516 944.638C271.323 942.719 272.195 940.823 273.132 938.97C278.408 928.331 285.362 918.652 293.646 910.281C295.259 908.624 296.96 907.011 298.704 905.441H298.725C302.976 901.626 307.511 898.16 312.307 895.043C314.465 893.648 316.689 892.296 318.956 891.053C322.553 889.048 326.281 887.238 330.117 885.669C332.733 884.579 335.393 883.576 338.118 882.704C345.05 880.415 352.31 878.802 359.765 877.952C363.973 877.45 368.246 877.21 372.584 877.21H644.19C697.665 877.21 741.2 833.698 741.2 780.2C741.2 726.703 697.665 683.19 644.19 683.19H136.25C114.079 683.19 93.1079 677.871 74.5779 668.41C73.3571 667.799 72.1581 667.167 70.9809 666.513C65.3347 663.418 59.9283 659.93 54.7835 656.115C21.5603 631.241 6.10352e-05 591.565 6.10352e-05 546.94C6.10352e-05 471.818 61.1055 410.69 136.25 410.69H644.19C697.665 410.69 741.2 367.178 741.2 313.68C741.2 260.183 697.665 216.67 644.19 216.67H110.984C49.7913 216.67 6.10352e-05 166.879 6.10352e-05 105.687V0.000114441H39.2401V105.687C39.2401 145.254 71.4169 177.43 110.984 177.43H644.19C719.313 177.43 780.44 238.558 780.44 313.68C780.44 388.803 719.313 449.93 644.19 449.93H136.25C82.7529 449.93 39.2401 493.443 39.2401 546.94C39.2401 574.452 50.7505 599.326 69.1933 616.984C73.5969 621.191 78.4147 625.006 83.5377 628.342C84.4097 628.908 85.3035 629.475 86.1973 630.02C95.6585 635.732 106.144 639.874 117.328 642.076C118.003 642.228 118.701 642.359 119.377 642.468C124.87 643.449 130.495 643.95 136.25 643.95H644.19C719.313 643.95 780.44 705.078 780.44 780.2Z" fill="white"/>
</svg>
