<svg width="101" height="39" viewBox="0 0 101 39" fill="none" xmlns="http://www.w3.org/2000/svg">
<path d="M19.2494 31.792C12.4478 31.792 6.93243 26.2766 6.93243 19.475C6.93243 12.6734 12.4478 7.15799 19.2494 7.15799C26.051 7.15799 31.5664 12.6734 31.5664 19.475C31.5664 26.2766 26.051 31.792 19.2494 31.792Z" fill="url(#paint0_linear_2_13619)"/>
<path d="M98.0565 19.4752C98.0565 19.4098 98.0564 19.3226 98.0782 19.2572C98.1 19.1918 98.1219 19.1046 98.1437 19.0392C98.1655 18.9738 98.209 18.9084 98.2526 18.843C98.2962 18.7776 98.3399 18.734 98.3835 18.6686C98.4271 18.625 98.4924 18.5814 98.5578 18.5378C98.6232 18.4942 98.6887 18.4724 98.7541 18.4288C98.8195 18.407 98.8849 18.3852 98.9503 18.3634C99.0157 18.3416 99.1028 18.3415 99.1682 18.3415C99.4734 18.3415 99.7568 18.4506 99.953 18.6686C100.367 19.0828 100.367 19.824 99.953 20.2382C99.735 20.4562 99.4516 20.5652 99.1682 20.5652C98.863 20.5652 98.5797 20.4562 98.3835 20.2382C98.3181 20.1946 98.2744 20.1292 98.2526 20.0638C98.209 19.9984 98.1655 19.933 98.1437 19.8676C98.1219 19.8022 98.1 19.7367 98.0782 19.6713C98.0564 19.6277 98.0565 19.5406 98.0565 19.4752Z" fill="white"/>
<path d="M44.1233 19.4751C44.1233 20.0855 44.6247 20.5869 45.2351 20.5869C45.8673 20.5869 46.3469 20.0855 46.3469 19.4751C46.3469 18.8647 45.8673 18.3633 45.2351 18.3633C44.6247 18.3633 44.1233 18.8647 44.1233 19.4751ZM48.6141 19.4751C48.6141 20.0855 49.1155 20.5869 49.7259 20.5869C50.3581 20.5869 50.8377 20.0855 50.8377 19.4751C50.8377 18.8647 50.3581 18.3633 49.7259 18.3633C49.1155 18.3633 48.6141 18.8647 48.6141 19.4751ZM53.1049 19.4751C53.1049 20.0855 53.6063 20.5869 54.2167 20.5869C54.8489 20.5869 55.3503 20.0855 55.3503 19.4751C55.3503 18.8647 54.8489 18.3633 54.2167 18.3633C53.6063 18.3633 53.1049 18.8647 53.1049 19.4751ZM57.5957 19.4751C57.5957 20.0855 58.0971 20.5869 58.7293 20.5869C59.3397 20.5869 59.8411 20.0855 59.8411 19.4751C59.8411 18.8647 59.3397 18.3633 58.7293 18.3633C58.0971 18.3633 57.5957 18.8647 57.5957 19.4751ZM62.1083 19.4751C62.1083 20.0855 62.6097 20.5869 63.2201 20.5869C63.8305 20.5869 64.3319 20.0855 64.3319 19.4751C64.3319 18.8647 63.8305 18.3633 63.2201 18.3633C62.6097 18.3633 62.1083 18.8647 62.1083 19.4751ZM66.5991 19.4751C66.5991 20.0855 67.1005 20.5869 67.7109 20.5869C68.3213 20.5869 68.8227 20.0855 68.8227 19.4751C68.8227 18.8647 68.3213 18.3633 67.7109 18.3633C67.1005 18.3633 66.5991 18.8647 66.5991 19.4751ZM71.0899 19.4751C71.0899 20.0855 71.5913 20.5869 72.2017 20.5869C72.8121 20.5869 73.3135 20.0855 73.3135 19.4751C73.3135 18.8647 72.8121 18.3633 72.2017 18.3633C71.5913 18.3633 71.0899 18.8647 71.0899 19.4751ZM75.5807 19.4751C75.5807 20.0855 76.0821 20.5869 76.6925 20.5869C77.3029 20.5869 77.8043 20.0855 77.8043 19.4751C77.8043 18.8647 77.3029 18.3633 76.6925 18.3633C76.0821 18.3633 75.5807 18.8647 75.5807 19.4751ZM80.0715 19.4751C80.0715 20.0855 80.5729 20.5869 81.1833 20.5869C81.8155 20.5869 82.3169 20.0855 82.3169 19.4751C82.3169 18.8647 81.8155 18.3633 81.1833 18.3633C80.5729 18.3633 80.0715 18.8647 80.0715 19.4751ZM84.5623 19.4751C84.5623 20.0855 85.0637 20.5869 85.6741 20.5869C86.3063 20.5869 86.8077 20.0855 86.8077 19.4751C86.8077 18.8647 86.3063 18.3633 85.6741 18.3633C85.0637 18.3633 84.5623 18.8647 84.5623 19.4751ZM89.0531 19.4751C89.0531 20.0855 89.5545 20.5869 90.1867 20.5869C90.7971 20.5869 91.2985 20.0855 91.2985 19.4751C91.2985 18.8647 90.7971 18.3633 90.1867 18.3633C89.5545 18.3633 89.0531 18.8647 89.0531 19.4751ZM93.5657 19.4751C93.5657 20.0855 94.0671 20.5869 94.6775 20.5869C95.2879 20.5869 95.7893 20.0855 95.7893 19.4751C95.7893 18.8647 95.2879 18.3633 94.6775 18.3633C94.0671 18.3633 93.5657 18.8647 93.5657 19.4751Z" fill="white"/>
<path d="M39.6323 19.4752C39.6323 19.3226 39.6541 19.1918 39.7195 19.0392C39.7849 18.9084 39.8503 18.7776 39.9593 18.6686C40.1555 18.4724 40.4607 18.3416 40.7441 18.3416C40.8095 18.3416 40.8967 18.3416 40.9621 18.3634C41.0275 18.3852 41.0929 18.407 41.1801 18.4288C41.2455 18.4506 41.3109 18.4942 41.3763 18.5378C41.4417 18.5814 41.4853 18.625 41.5507 18.6686C41.8123 18.9302 41.9213 19.3226 41.8559 19.6714C41.8559 19.7368 41.8123 19.8022 41.7905 19.8676C41.7687 19.933 41.7251 19.9984 41.6815 20.0638C41.6379 20.1292 41.5943 20.1728 41.5507 20.2382C41.5071 20.3036 41.4417 20.3472 41.3763 20.369C41.3109 20.4126 41.2455 20.4562 41.1801 20.478C41.1147 20.4998 41.0493 20.5216 40.9621 20.5434C40.8967 20.5652 40.8095 20.5652 40.7441 20.5652C40.4389 20.5652 40.1555 20.4562 39.9593 20.2382C39.8939 20.1946 39.8503 20.1292 39.8285 20.0638C39.7849 19.9984 39.7413 19.933 39.7195 19.8676C39.6977 19.8022 39.6759 19.7368 39.6541 19.6714C39.6323 19.6278 39.6323 19.5406 39.6323 19.4752Z" fill="white"/>
<path d="M0 21.3497C0 21.3933 -1.19746e-05 21.4369 0.021788 21.4587C0.065388 22.0255 0.566793 22.4615 1.13359 22.4615H1.2426C1.8094 22.3961 2.22359 21.9165 2.22359 21.3715V21.2407C2.17999 20.6303 1.6132 20.1725 1.0028 20.2379C0.435998 20.3033 0 20.7829 0 21.3497ZM0.10899 16.7499C0.08719 16.7935 0.087202 16.8589 0.087202 16.9025C0.087202 17.4475 0.501391 17.9271 1.04639 18.0143C1.08999 18.0143 1.15539 18.0361 1.19899 18.0361C1.74399 18.0361 2.22359 17.6219 2.31079 17.0551C2.31079 17.0115 2.3326 16.9461 2.3326 16.9025C2.3326 16.3575 1.91839 15.8779 1.35159 15.7907C0.762989 15.7035 0.19619 16.1395 0.10899 16.7499ZM1.74399 24.6415C1.28619 24.7941 1.0028 25.2301 1.0028 25.6879C1.0028 25.8187 1.0246 25.9277 1.0682 26.0585C1.2208 26.5163 1.6568 26.7997 2.1146 26.7997C2.2454 26.7997 2.3544 26.7779 2.4852 26.7343C2.943 26.5599 3.22639 26.1457 3.22639 25.6879C3.22639 25.5789 3.20459 25.4482 3.16099 25.3174C2.94299 24.7288 2.31079 24.4235 1.74399 24.6415ZM1.3298 12.1937C1.2862 12.3245 1.2426 12.4771 1.2426 12.6079C1.2426 13.0439 1.5042 13.4581 1.9402 13.6325C2.0928 13.6979 2.22359 13.7197 2.37619 13.7197C2.81219 13.7197 3.22639 13.4582 3.40079 13.0222C3.46619 12.8914 3.488 12.7387 3.488 12.6079C3.488 12.1719 3.2264 11.7577 2.7904 11.5833C2.2236 11.3435 1.5696 11.6051 1.3298 12.1937ZM3.5098 28.7181C3.1828 28.9361 3.00839 29.2849 3.00839 29.6555C3.00839 29.8517 3.0738 30.0697 3.2046 30.2659C3.4226 30.5929 3.7714 30.7674 4.1202 30.7674C4.3382 30.7674 4.5562 30.7019 4.7524 30.5711C5.0794 30.3531 5.25379 29.9825 5.25379 29.6337C5.25379 29.4157 5.1884 29.1977 5.0576 29.0233C4.7088 28.5219 4.0112 28.3693 3.5098 28.7181ZM3.6406 8.07354C3.488 8.26974 3.4226 8.48775 3.4226 8.72755C3.4226 9.07635 3.5752 9.40332 3.8804 9.62132C4.0766 9.77392 4.31639 9.83934 4.53439 9.83934C4.88319 9.83934 5.2102 9.68672 5.42819 9.38152C5.58079 9.18532 5.64619 8.94555 5.64619 8.72755C5.64619 8.37875 5.49359 8.05174 5.18839 7.83374C4.70879 7.46314 3.9894 7.57214 3.6406 8.07354ZM6.213 32.2497C6.0168 32.4677 5.9296 32.7293 5.9296 33.0127C5.9296 33.3179 6.0604 33.6231 6.3002 33.8411C6.5182 34.0155 6.77979 34.1245 7.04139 34.1245C7.34659 34.1245 7.6518 33.9937 7.8698 33.7539C8.066 33.5359 8.15319 33.2743 8.15319 33.0127C8.15319 32.7075 8.0224 32.4023 7.7826 32.1843C7.3248 31.7701 6.6272 31.7919 6.213 32.2497ZM6.86699 4.62914C6.60539 4.84714 6.4528 5.15234 6.4528 5.47934C6.4528 5.74094 6.53999 5.98074 6.71439 6.19874C6.95419 6.46034 7.25939 6.59113 7.58639 6.59113C7.84799 6.59113 8.08779 6.50394 8.30579 6.32954C8.56739 6.11153 8.69819 5.80634 8.69819 5.47934C8.69819 5.21774 8.61099 4.97793 8.43659 4.75993C8.04419 4.30213 7.34659 4.23674 6.86699 4.62914ZM9.70099 35.0401C9.61379 35.1927 9.5702 35.3889 9.5702 35.5633C9.5702 35.9557 9.78821 36.3481 10.1588 36.5443C10.3332 36.6315 10.5076 36.6751 10.682 36.6751C11.0744 36.6751 11.4668 36.4571 11.663 36.0865C11.7502 35.9121 11.7938 35.7377 11.7938 35.5633C11.7938 35.1709 11.5758 34.7786 11.2052 34.5824C10.6602 34.299 9.98439 34.4951 9.70099 35.0401ZM10.8346 2.05672C10.4204 2.25292 10.2024 2.64534 10.2024 3.05954C10.2024 3.23394 10.246 3.40833 10.3114 3.56092C10.5076 3.95333 10.9 4.17132 11.2924 4.17132C11.4668 4.17132 11.6412 4.14955 11.7938 4.06235C12.208 3.86615 12.426 3.49553 12.426 3.08133C12.426 2.90693 12.3824 2.73253 12.317 2.57993C12.0554 2.03493 11.3796 1.79512 10.8346 2.05672ZM13.7558 36.8931C13.734 36.9803 13.7122 37.0675 13.7122 37.1547C13.7122 37.6561 14.061 38.1139 14.5624 38.2447C14.6496 38.2665 14.7368 38.2883 14.8458 38.2883C15.3472 38.2883 15.7832 37.9395 15.914 37.4163C15.9358 37.3291 15.9576 37.2419 15.9576 37.1547C15.9576 36.6533 15.6088 36.2173 15.1074 36.0865C14.497 35.9339 13.9084 36.3045 13.7558 36.8931ZM15.3036 0.552547C14.7586 0.639748 14.4098 1.11935 14.4098 1.64255C14.4098 1.70795 14.4098 1.79513 14.4316 1.86053C14.5406 2.40553 15.0202 2.75434 15.5434 2.75434C15.6088 2.75434 15.6742 2.75435 15.7396 2.73255C16.2628 2.62355 16.6334 2.16575 16.6334 1.64255C16.6334 1.55535 16.6334 1.48995 16.6116 1.40275C16.4808 0.814148 15.8922 0.421749 15.3036 0.552547ZM18.1376 37.6997C18.1376 38.3101 18.639 38.8115 19.2494 38.8115C19.8598 38.8115 20.3612 38.3101 20.3612 37.6997C20.3612 37.0893 19.8598 36.5879 19.2494 36.5879C18.639 36.5879 18.1376 37.0893 18.1376 37.6997ZM18.8352 1.22834C18.8352 1.22834 18.8352 1.25015 18.8352 1.27195C18.8352 1.86055 19.3148 2.36194 19.9034 2.38374C19.9252 2.38374 19.9252 2.38374 19.947 2.38374C20.5574 2.38374 21.037 1.90413 21.0588 1.31553V1.22834C21.0588 0.661545 20.601 0.181931 19.9906 0.160133C19.3802 0.116531 18.857 0.596142 18.8352 1.22834ZM21.1678 37.4599C21.1678 37.5035 21.1678 37.5689 21.1896 37.6343C21.2768 38.1793 21.7564 38.5717 22.2796 38.5717C22.345 38.5717 22.3886 38.5499 22.454 38.5499C22.999 38.4409 23.4132 37.9613 23.4132 37.4163C23.4132 37.3727 23.3914 37.3291 23.3914 37.2637C23.2824 36.6533 22.6938 36.2391 22.0834 36.3481C21.5602 36.4353 21.1678 36.9149 21.1678 37.4599ZM23.2824 1.66434C23.2388 1.77334 23.2388 1.86053 23.2388 1.96954C23.2388 2.47094 23.544 2.90695 24.0236 3.03775C24.1326 3.05955 24.2416 3.08133 24.3506 3.08133C24.852 3.08133 25.2662 2.77612 25.4188 2.29652C25.4406 2.18752 25.4624 2.07854 25.4624 1.96954C25.4624 1.48994 25.1354 1.05392 24.6558 0.901325C24.0672 0.726925 23.4568 1.07574 23.2824 1.66434ZM26.0946 35.1491C25.6804 35.3453 25.4188 35.7595 25.4188 36.1737C25.4188 36.3263 25.4624 36.4789 25.5278 36.6315C25.7022 37.0457 26.0946 37.3074 26.5306 37.3074C26.6832 37.3074 26.8358 37.2637 26.9884 37.1983C27.4026 37.0239 27.6642 36.6315 27.6642 36.1955C27.6642 36.0429 27.6206 35.8903 27.5552 35.7377C27.3154 35.1709 26.6614 34.9093 26.0946 35.1491ZM27.468 3.16854C27.359 3.34294 27.3154 3.53913 27.3154 3.73533C27.3154 4.12773 27.5116 4.47654 27.8604 4.69453C28.0348 4.80354 28.231 4.84715 28.4272 4.84715C28.8196 4.84715 29.1902 4.65095 29.3864 4.30215C29.4954 4.12775 29.539 3.93153 29.539 3.73533C29.539 3.34293 29.3428 2.97232 28.994 2.77613C28.4708 2.44912 27.7732 2.64534 27.468 3.16854ZM29.6916 33.0345C29.4082 33.2525 29.2556 33.5795 29.2556 33.9065C29.2556 34.1463 29.321 34.3861 29.4954 34.6041C29.7134 34.8875 30.0404 35.0401 30.3674 35.0401C30.6072 35.0401 30.847 34.9529 31.0432 34.8003C31.3484 34.5823 31.4792 34.2553 31.4792 33.9065C31.4792 33.6667 31.4138 33.4269 31.2612 33.2307C30.8688 32.7511 30.1712 32.6639 29.6916 33.0345ZM31.174 5.65374C30.956 5.87174 30.847 6.15512 30.847 6.41672C30.847 6.72192 30.9778 7.00534 31.1958 7.22334C31.4138 7.44134 31.6754 7.55033 31.9588 7.55033C32.2422 7.55033 32.5474 7.41952 32.7654 7.20152C32.9834 6.98352 33.0924 6.72194 33.0924 6.43854C33.0924 6.15514 32.9616 5.84995 32.7436 5.63195C32.3076 5.19595 31.61 5.21774 31.174 5.65374ZM32.6564 30.0915C32.5038 30.3095 32.4166 30.5493 32.4166 30.7891C32.4166 31.1161 32.5692 31.4431 32.8526 31.6611C33.0488 31.8355 33.3104 31.9009 33.5502 31.9009C33.8772 31.9009 34.1824 31.7701 34.4004 31.4867C34.5748 31.2905 34.6402 31.0289 34.6402 30.7891C34.6402 30.4621 34.5094 30.1352 34.226 29.9172C33.7464 29.5248 33.0488 29.6119 32.6564 30.0915ZM34.1606 8.94553C33.8336 9.16353 33.6374 9.53413 33.6374 9.90473C33.6374 10.1009 33.7028 10.2971 33.8118 10.4933C34.0298 10.8203 34.3786 11.0165 34.7492 11.0165C34.9454 11.0165 35.1416 10.9512 35.3378 10.8422C35.6866 10.6242 35.8828 10.2535 35.8828 9.88295C35.8828 9.68675 35.8174 9.49052 35.7084 9.31613C35.3814 8.79292 34.6838 8.61853 34.1606 8.94553ZM34.8364 26.5381C34.771 26.6907 34.7274 26.8433 34.7274 26.9959C34.7274 27.4101 34.989 27.8243 35.4032 28.0205C35.5558 28.0859 35.6866 28.1077 35.8392 28.1077C36.2752 28.1077 36.6894 27.8679 36.8638 27.4537C36.9292 27.3011 36.9728 27.1267 36.9728 26.9741C36.9728 26.5599 36.733 26.1675 36.3188 25.9713C35.752 25.7315 35.098 25.9713 34.8364 26.5381ZM36.2752 12.8695C35.7956 13.0221 35.4904 13.4581 35.4904 13.9377C35.4904 14.0467 35.5122 14.1557 35.5558 14.2647C35.7084 14.7443 36.1444 15.0495 36.624 15.0495C36.733 15.0495 36.842 15.0277 36.951 15.0059C37.4306 14.8533 37.7358 14.4173 37.7358 13.9595C37.7358 13.8287 37.714 13.7197 37.6704 13.6107C37.496 13.0003 36.8638 12.6951 36.2752 12.8695ZM36.079 22.5487C36.079 22.6141 36.0572 22.6795 36.0572 22.7449C36.0572 23.2681 36.4496 23.7477 36.9728 23.8567C37.0382 23.8567 37.0818 23.8785 37.1472 23.8785C37.6922 23.8785 38.1718 23.4861 38.2808 22.9411C38.3026 22.8757 38.3026 22.8103 38.3026 22.7449C38.3026 22.2217 37.9102 21.7421 37.387 21.6549C36.7766 21.5459 36.188 21.9383 36.079 22.5487ZM36.3188 18.2977V18.3849C36.3624 18.9735 36.8638 19.4313 37.4742 19.4313C37.496 19.4313 37.496 19.4313 37.5178 19.4313C38.1064 19.3877 38.5424 18.8863 38.5424 18.3195V18.2324C38.5206 17.622 37.9756 17.1641 37.3652 17.1859C36.7766 17.2295 36.3188 17.7309 36.3188 18.2977Z" fill="white"/>
<defs>
<linearGradient id="paint0_linear_2_13619" x1="7.27317" y1="19.4759" x2="35.0389" y2="19.4759" gradientUnits="userSpaceOnUse">
<stop stop-color="#2063C6"/>
<stop offset="1" stop-color="#5096D1"/>
</linearGradient>
</defs>
</svg>
